<svg xmlns="http://www.w3.org/2000/svg" width="364" height="44" viewBox="0 0 364 44" version="1.1">
    <path
        d="M 319 11.957 C 319 13.124, 319.836 15.749, 320.858 17.790 C 321.880 19.830, 323.005 23.705, 323.359 26.399 C 323.992 31.221, 325.703 34.631, 326.891 33.442 C 327.225 33.108, 327.357 30.285, 327.186 27.168 L 326.874 21.500 331.937 17.520 C 336.693 13.781, 338.594 10, 335.718 10 C 335.012 10, 332.327 12.079, 329.750 14.619 L 325.065 19.238 323.926 16.369 C 322.076 11.712, 321.423 10.641, 320.179 10.226 C 319.521 10.007, 319 10.771, 319 11.957 M 262.452 16.750 C 254.652 25.904, 251.990 31.847, 254.547 34.404 C 256.545 36.402, 258 35.627, 258 32.563 C 258 29.428, 259.838 28.121, 265.299 27.372 C 269.748 26.763, 269.918 26.836, 270.532 29.621 C 271.603 34.475, 271.886 35, 273.432 35 C 275.734 35, 274.863 25.374, 272.166 21 C 269.890 17.309, 269.662 16.563, 269.948 13.750 C 270.284 10.448, 266.550 11.942, 262.452 16.750 M 24.003 16.750 C 23.403 18.813, 22.650 23.660, 22.329 27.522 C 21.848 33.311, 22.036 34.785, 23.397 35.915 C 25.642 37.778, 26.124 37.016, 26.544 30.928 C 26.743 28.056, 27.201 24.360, 27.563 22.713 L 28.220 19.720 30.213 22.867 C 33.045 27.340, 36.421 27.929, 39.936 24.561 L 42.742 21.873 43.206 27.472 C 43.461 30.551, 44.155 33.555, 44.748 34.148 C 47.070 36.470, 48 33.730, 48 24.563 C 48 11.984, 46.761 10.841, 40.166 17.336 C 37.562 19.901, 34.997 21.986, 34.466 21.968 C 33.935 21.951, 32.280 19.926, 30.788 17.468 C 27.463 11.988, 25.451 11.775, 24.003 16.750 M 204.511 15.250 C 203.661 17.743, 201 28.816, 201 29.859 C 201 30.448, 201.848 31.383, 202.885 31.938 C 205.277 33.219, 214.191 31.042, 217.013 28.488 C 222.315 23.690, 216.864 14, 208.863 14 C 206.616 14, 204.755 14.535, 204.511 15.250 M 89.116 18.580 C 86.281 22.183, 86.367 27.057, 89.314 29.826 C 92.218 32.553, 94.987 32.585, 98.365 29.927 C 101.608 27.377, 101.714 24.358, 98.718 19.898 C 95.706 15.415, 92.005 14.907, 89.116 18.580 M 143.646 16.764 C 143.386 17.184, 142.658 20.369, 142.029 23.842 C 141.155 28.658, 141.164 30.492, 142.064 31.578 C 144.423 34.419, 146 33.209, 146 28.559 C 146 26.116, 146.350 23.902, 146.777 23.638 C 147.205 23.373, 149.997 24.697, 152.981 26.579 C 155.965 28.460, 158.963 30, 159.642 30 C 160.979 30, 162.396 22.844, 161.840 18.907 C 161.346 15.407, 158.570 15.856, 158.173 19.500 C 157.632 24.467, 156.437 24.570, 150.588 20.154 C 144.747 15.745, 144.385 15.568, 143.646 16.764 M 208.989 17.282 C 208.983 17.402, 208.330 19.637, 207.537 22.250 C 206.170 26.754, 206.194 27, 207.992 27 C 209.035 27, 211.151 25.902, 212.694 24.561 C 214.934 22.613, 215.289 21.775, 214.452 20.407 C 213.616 19.040, 209.032 16.417, 208.989 17.282 M 265.015 20.972 C 264.090 22.701, 264.230 23, 265.965 23 C 267.084 23, 268 22.352, 268 21.559 C 268 19.168, 266.173 18.809, 265.015 20.972 M 91.975 23.047 C 90.400 25.990, 92.145 27.712, 94.409 25.448 C 95.333 24.524, 95.929 23.286, 95.732 22.696 C 95.064 20.692, 93.139 20.872, 91.975 23.047"
        stroke="none" fill="#fff" fill-rule="evenodd" />
</svg>