<svg xmlns="http://www.w3.org/2000/svg" width="406" height="50" viewBox="0 0 406 50" version="1.1"><path d="M 144.597 14.250 C 144.409 14.938, 143.560 17.975, 142.709 21 C 139.958 30.776, 139.678 34.535, 141.559 36.416 C 142.647 37.504, 144.181 37.920, 145.874 37.586 C 147.318 37.302, 150.188 36.778, 152.250 36.423 C 154.380 36.056, 156 35.203, 156 34.448 C 156 32.416, 154.914 32.156, 149.750 32.951 C 145.607 33.590, 145 33.458, 145 31.924 C 145 30.761, 146.524 29.583, 149.500 28.447 C 155.093 26.311, 155.697 23.583, 150.440 24.197 C 147.055 24.592, 146.912 24.487, 147.521 22.062 C 148.536 18.017, 150 16.841, 153.159 17.535 C 155.293 18.004, 156 17.786, 156 16.662 C 156 15.674, 154.285 14.798, 150.951 14.083 C 144.724 12.748, 145.008 12.740, 144.597 14.250 M 86.250 14.786 C 82.933 15.134, 81.796 17.324, 84.411 18.328 C 85.494 18.743, 85.698 20.243, 85.287 24.769 C 84.622 32.109, 85.945 35, 89.970 35 C 91.565 35, 94.097 34.533, 95.598 33.963 C 99.379 32.525, 97.187 30.471, 92.227 30.804 C 88.719 31.040, 88.614 30.965, 90.441 29.527 C 91.509 28.687, 93.004 28, 93.764 28 C 94.553 28, 94.990 27.248, 94.782 26.250 C 94.548 25.122, 93.632 24.585, 92.209 24.738 C 89.751 25.003, 89.549 24.318, 90.975 20.565 C 91.566 19.012, 92.726 18, 93.916 18 C 96.399 18, 97.360 16.536, 95.739 15.223 C 94.508 14.227, 92.478 14.133, 86.250 14.786 M 199.690 17.800 C 198.138 25.562, 197.764 36.011, 198.986 37.483 C 200.927 39.822, 202 39.295, 202 36 C 202 34.350, 202.140 33, 202.312 33 C 202.484 33, 204.487 33.900, 206.764 35 C 211.018 37.055, 214.012 37.574, 213.985 36.250 C 213.952 34.631, 212.320 33.178, 208.180 31.078 L 203.860 28.888 208.430 25.398 C 210.943 23.479, 213 21.506, 213 21.013 C 213 19.011, 210.775 18.976, 207.614 20.930 C 205.771 22.068, 204.041 23, 203.768 23 C 203.495 23, 203.323 21.328, 203.386 19.283 C 203.532 14.516, 200.583 13.333, 199.690 17.800 M 258.250 15.728 C 253.842 16.044, 253 16.417, 253 18.052 C 253 19.175, 253.681 20, 254.607 20 C 255.747 20, 256.003 20.508, 255.488 21.750 C 255.089 22.712, 254.532 26.754, 254.251 30.731 C 253.821 36.804, 254.001 38.063, 255.372 38.589 C 257.942 39.576, 270 36.852, 270 35.285 C 270 33.192, 267.523 32.727, 262.306 33.839 C 259.677 34.400, 257.397 34.730, 257.239 34.573 C 256.153 33.487, 258.756 31.090, 262.114 30.084 C 265.022 29.213, 266.030 28.418, 265.782 27.191 C 265.532 25.950, 264.604 25.581, 262.300 25.803 C 259.469 26.077, 259.215 25.879, 259.724 23.803 C 260.569 20.356, 261.973 19, 264.696 19 C 266.485 19, 267.056 18.531, 266.812 17.261 C 266.438 15.319, 265.731 15.192, 258.250 15.728 M 24.070 17.870 C 22.302 21.172, 22.708 33.513, 24.637 35.114 C 26.057 36.292, 26.489 36.144, 27.887 34.001 C 28.774 32.642, 30.715 30.173, 32.201 28.515 L 34.902 25.500 38.024 29.250 C 43.140 35.396, 46.122 34.039, 47.486 24.943 C 48.014 21.424, 47.814 20.090, 46.610 19.091 C 45.287 17.994, 44.904 18.155, 44.094 20.148 C 43.568 21.442, 42.848 23.839, 42.494 25.475 L 41.849 28.451 39.947 25.975 C 38.900 24.614, 38.034 22.768, 38.022 21.872 C 38.010 20.977, 37.270 19.639, 36.377 18.898 C 34.963 17.725, 34.321 18.063, 31.392 21.526 L 28.030 25.500 28.015 21.872 C 27.996 17.314, 25.644 14.928, 24.070 17.870 M 370.248 17.793 C 367.484 18.218, 366.404 20.120, 365.499 26.158 C 364.629 31.959, 365.613 36.723, 367.939 37.967 C 372.465 40.390, 384.004 33.333, 383.996 28.146 C 383.990 23.659, 380.665 19.406, 376.355 18.372 C 374.235 17.863, 371.487 17.603, 370.248 17.793 M 307.798 23.750 C 307.469 29.870, 307.919 34.319, 308.976 35.376 C 310.604 37.004, 311.386 35.236, 311.140 30.481 C 311.012 28.016, 311.184 26, 311.521 26 C 311.858 26, 313.566 27.072, 315.317 28.382 C 320.195 32.032, 325.123 34.277, 326.105 33.295 C 327.588 31.812, 325.723 20.500, 323.996 20.500 C 322.856 20.500, 322.566 21.529, 322.777 24.825 C 323.092 29.754, 323.024 29.744, 315.861 23.830 C 309.859 18.874, 308.062 18.856, 307.798 23.750 M 371.836 21.746 C 370.678 22.002, 369.963 23.637, 369.483 27.121 C 369.105 29.875, 369.061 32.395, 369.387 32.720 C 369.713 33.046, 371.812 32.487, 374.051 31.477 C 378.268 29.575, 380.518 26.793, 379.657 24.547 C 379.058 22.989, 374.159 21.234, 371.836 21.746" stroke="none" fill="#e9e8ef" fill-rule="evenodd"/></svg>