<svg width="204" height="277" viewBox="0 0 204 277" fill="none" xmlns="http://www.w3.org/2000/svg">
<path d="M9.78261 272.014C8.16578 272.014 6.85508 273.799 6.85508 276L3.92754 276C3.92754 273.799 2.61684 272.014 1 272.014V268.029C2.61684 268.029 3.92754 266.245 3.92754 264.043C3.92754 261.842 2.61683 260.058 1 260.058L1 256.072C2.61684 256.072 3.92754 254.288 3.92754 252.087C3.92754 249.886 2.61683 248.101 1 248.101L1 244.116C2.61684 244.116 3.92754 242.332 3.92754 240.13C3.92754 237.929 2.61684 236.145 1 236.145L1.00001 232.159C2.61684 232.159 3.92754 230.375 3.92754 228.174C3.92754 225.973 2.61684 224.188 1.00001 224.188L1 220.203C2.61684 220.203 3.92754 218.419 3.92754 216.217C3.92754 214.016 2.61683 212.232 1 212.232L1 208.246C2.61684 208.246 3.92754 206.462 3.92754 204.261C3.92754 202.06 2.61683 200.275 1 200.275L1 196.29C2.61684 196.29 3.92754 194.505 3.92754 192.304C3.92754 190.103 2.61684 188.319 1 188.319L1.00001 184.333C2.61684 184.333 3.92754 182.549 3.92754 180.348C3.92754 178.147 2.61684 176.362 1.00001 176.362L1 172.377C2.61684 172.377 3.92754 170.592 3.92754 168.391C3.92754 166.19 2.61683 164.406 1 164.406L1 160.42C2.61684 160.42 3.92754 158.636 3.92754 156.435C3.92754 154.234 2.61683 152.449 1 152.449L1 148.464C2.61684 148.464 3.92754 146.679 3.92754 144.478C3.92754 142.277 2.61684 140.493 1 140.493L1.00001 136.507C2.61684 136.507 3.92754 134.723 3.92754 132.522C3.92754 130.321 2.61684 128.536 1.00001 128.536L1 124.551C2.61684 124.551 3.92754 122.766 3.92754 120.565C3.92754 118.364 2.61683 116.58 1 116.58L1 112.594C2.61684 112.594 3.92754 110.81 3.92754 108.609C3.92754 106.408 2.61683 104.623 1 104.623L1 100.638C2.61684 100.638 3.92754 98.8533 3.92754 96.6522C3.92754 94.451 2.61684 92.6667 1 92.6667L1.00001 88.6812C2.61684 88.6812 3.92754 86.8968 3.92754 84.6957C3.92754 82.4945 2.61684 80.7101 1.00001 80.7101L1 76.7246C2.61684 76.7246 3.92754 74.9403 3.92754 72.7391C3.92754 70.538 2.61683 68.7536 1 68.7536L1 64.7681C2.61684 64.7681 3.92754 62.9837 3.92754 60.7826C3.92754 58.5815 2.61683 56.7971 1 56.7971L1 52.8116C2.61684 52.8116 3.92754 51.0272 3.92754 48.8261C3.92754 46.625 2.61684 44.8406 1 44.8406L1.00001 40.8551C2.61684 40.8551 3.92754 39.0707 3.92754 36.8696C3.92754 34.6684 2.61684 32.8841 1.00001 32.8841L1 28.8986C2.61684 28.8986 3.92754 27.1142 3.92754 24.913C3.92754 22.7119 2.61683 20.9275 1 20.9275L1 16.942C2.61684 16.942 3.92754 15.1577 3.92754 12.9565C3.92754 10.7554 2.61684 8.97102 1 8.97102L1 4.98551C2.61683 4.98551 3.92754 3.20114 3.92754 1.00001H6.85508C6.85508 3.20114 8.16577 4.98551 9.78261 4.98551C11.3995 4.98551 12.7102 3.20113 12.7102 1L15.6377 1.00001C15.6377 3.20114 16.9484 4.98551 18.5652 4.98551C20.1821 4.98551 21.4928 3.20113 21.4928 1L24.4203 1.00001C24.4203 3.20114 25.731 4.98551 27.3478 4.98551C28.9647 4.98551 30.2754 3.20114 30.2754 1.00001L33.2029 1.00001C33.2029 3.20114 34.5136 4.98551 36.1304 4.98551C37.7473 4.98551 39.058 3.20114 39.058 1.00001L41.9855 1.00001C41.9855 3.20114 43.2962 4.98551 44.913 4.98551C46.5299 4.98551 47.8406 3.20113 47.8406 1L50.7681 1.00001C50.7681 3.20114 52.0788 4.98551 53.6957 4.98551C55.3125 4.98551 56.6232 3.20113 56.6232 1L59.5507 1.00001C59.5507 3.20114 60.8614 4.98551 62.4783 4.98551C64.0951 4.98551 65.4058 3.20114 65.4058 1.00001L68.3333 1.00001C68.3333 3.20114 69.644 4.98551 71.2609 4.98551C72.8777 4.98551 74.1884 3.20114 74.1884 1.00001L77.1159 1.00001C77.1159 3.20114 78.4266 4.98551 80.0435 4.98551C81.6603 4.98551 82.971 3.20113 82.971 1L85.8986 1.00001C85.8986 3.20114 87.2093 4.98551 88.8261 4.98551C90.4429 4.98551 91.7537 3.20113 91.7537 1L94.6812 1.00001C94.6812 3.20114 95.9919 4.98551 97.6087 4.98551C99.2255 4.98551 100.536 3.20114 100.536 1.00001L103.464 1.00001C103.464 3.20114 104.774 4.98551 106.391 4.98551C108.008 4.98551 109.319 3.20114 109.319 1.00001L112.246 1.00001C112.246 3.20114 113.557 4.98551 115.174 4.98551C116.791 4.98551 118.101 3.20113 118.101 1L121.029 1.00001C121.029 3.20114 122.34 4.98551 123.957 4.98551C125.573 4.98551 126.884 3.20113 126.884 1L129.812 1.00001C129.812 3.20114 131.122 4.98551 132.739 4.98551C134.356 4.98551 135.667 3.20114 135.667 1.00001L138.594 1.00001C138.594 3.20114 139.905 4.98551 141.522 4.98551C143.139 4.98551 144.449 3.20114 144.449 1.00001L147.377 1.00001C147.377 3.20114 148.688 4.98551 150.304 4.98551C151.921 4.98551 153.232 3.20113 153.232 1L156.159 1.00001C156.159 3.20114 157.47 4.98551 159.087 4.98551C160.704 4.98551 162.015 3.20113 162.015 1L164.942 1.00001C164.942 3.20114 166.253 4.98551 167.87 4.98551C169.486 4.98551 170.797 3.20114 170.797 1.00001L173.725 1.00001C173.725 3.20114 175.035 4.98551 176.652 4.98551C178.269 4.98551 179.58 3.20114 179.58 1.00001L182.507 1.00001C182.507 3.20114 183.818 4.98551 185.435 4.98551C187.052 4.98551 188.362 3.20113 188.362 1L191.29 1.00001C191.29 3.20114 192.601 4.98551 194.217 4.98551C195.834 4.98551 197.145 3.20114 197.145 1.00001L200.072 1C200.072 3.20113 201.383 4.98551 203 4.98551V8.97102C201.383 8.97102 200.072 10.7554 200.072 12.9565C200.072 15.1577 201.383 16.9421 203 16.9421L203 20.9275C201.383 20.9275 200.072 22.7119 200.072 24.913C200.072 27.1142 201.383 28.8986 203 28.8986L203 32.8841C201.383 32.8841 200.072 34.6684 200.072 36.8696C200.072 39.0707 201.383 40.8551 203 40.8551V44.8405C201.383 44.8405 200.072 46.6249 200.072 48.8261C200.072 51.0272 201.383 52.8116 203 52.8116V56.7971C201.383 56.7971 200.072 58.5815 200.072 60.7826C200.072 62.9837 201.383 64.7682 203 64.7682L203 68.7536C201.383 68.7536 200.072 70.538 200.072 72.7391C200.072 74.9403 201.383 76.7247 203 76.7247L203 80.7101C201.383 80.7101 200.072 82.4945 200.072 84.6956C200.072 86.8968 201.383 88.6812 203 88.6812V92.6666C201.383 92.6666 200.072 94.451 200.072 96.6522C200.072 98.8533 201.383 100.638 203 100.638V104.623C201.383 104.623 200.072 106.408 200.072 108.609C200.072 110.81 201.383 112.594 203 112.594L203 116.58C201.383 116.58 200.072 118.364 200.072 120.565C200.072 122.766 201.383 124.551 203 124.551L203 128.536C201.383 128.536 200.072 130.321 200.072 132.522C200.072 134.723 201.383 136.507 203 136.507V140.493C201.383 140.493 200.072 142.277 200.072 144.478C200.072 146.679 201.383 148.464 203 148.464V152.449C201.383 152.449 200.072 154.234 200.072 156.435C200.072 158.636 201.383 160.42 203 160.42L203 164.406C201.383 164.406 200.072 166.19 200.072 168.391C200.072 170.592 201.383 172.377 203 172.377L203 176.362C201.383 176.362 200.072 178.147 200.072 180.348C200.072 182.549 201.383 184.333 203 184.333V188.319C201.383 188.319 200.072 190.103 200.072 192.304C200.072 194.505 201.383 196.29 203 196.29V200.275C201.383 200.275 200.072 202.06 200.072 204.261C200.072 206.462 201.383 208.246 203 208.246L203 212.232C201.383 212.232 200.072 214.016 200.072 216.217C200.072 218.419 201.383 220.203 203 220.203L203 224.188C201.383 224.188 200.072 225.973 200.072 228.174C200.072 230.375 201.383 232.159 203 232.159V236.145C201.383 236.145 200.072 237.929 200.072 240.13C200.072 242.332 201.383 244.116 203 244.116V248.101C201.383 248.101 200.072 249.886 200.072 252.087C200.072 254.288 201.383 256.072 203 256.072L203 260.058C201.383 260.058 200.072 261.842 200.072 264.043C200.072 266.245 201.383 268.029 203 268.029L203 272.014C201.383 272.014 200.072 273.799 200.072 276H197.145C197.145 273.799 195.834 272.014 194.217 272.014C192.601 272.014 191.29 273.799 191.29 276L188.362 276C188.362 273.799 187.052 272.014 185.435 272.014C183.818 272.014 182.507 273.799 182.507 276L179.58 276C179.58 273.799 178.269 272.014 176.652 272.014C175.035 272.014 173.725 273.799 173.725 276H170.797C170.797 273.799 169.486 272.014 167.87 272.014C166.253 272.014 164.942 273.799 164.942 276H162.014C162.014 273.799 160.704 272.014 159.087 272.014C157.47 272.014 156.159 273.799 156.159 276L153.232 276C153.232 273.799 151.921 272.014 150.304 272.014C148.688 272.014 147.377 273.799 147.377 276L144.449 276C144.449 273.799 143.139 272.014 141.522 272.014C139.905 272.014 138.594 273.799 138.594 276H135.667C135.667 273.799 134.356 272.014 132.739 272.014C131.122 272.014 129.812 273.799 129.812 276H126.884C126.884 273.799 125.573 272.014 123.957 272.014C122.34 272.014 121.029 273.799 121.029 276L118.101 276C118.101 273.799 116.791 272.014 115.174 272.014C113.557 272.014 112.246 273.799 112.246 276L109.319 276C109.319 273.799 108.008 272.014 106.391 272.014C104.774 272.014 103.464 273.799 103.464 276H100.536C100.536 273.799 99.2256 272.014 97.6087 272.014C95.9919 272.014 94.6812 273.799 94.6812 276H91.7536C91.7536 273.799 90.4429 272.014 88.8261 272.014C87.2093 272.014 85.8985 273.799 85.8985 276L82.971 276C82.971 273.799 81.6603 272.014 80.0435 272.014C78.4266 272.014 77.1159 273.799 77.1159 276L74.1884 276C74.1884 273.799 72.8777 272.014 71.2609 272.014C69.644 272.014 68.3333 273.799 68.3333 276H65.4058C65.4058 273.799 64.0951 272.014 62.4783 272.014C60.8614 272.014 59.5507 273.799 59.5507 276H56.6232C56.6232 273.799 55.3125 272.014 53.6957 272.014C52.0788 272.014 50.7681 273.799 50.7681 276L47.8406 276C47.8406 273.799 46.5299 272.014 44.913 272.014C43.2962 272.014 41.9855 273.799 41.9855 276L39.058 276C39.058 273.799 37.7473 272.014 36.1304 272.014C34.5136 272.014 33.2029 273.799 33.2029 276H30.2754C30.2754 273.799 28.9647 272.014 27.3478 272.014C25.731 272.014 24.4203 273.799 24.4203 276H21.4928C21.4928 273.799 20.1821 272.014 18.5652 272.014C16.9484 272.014 15.6376 273.799 15.6376 276L12.7101 276C12.7101 273.799 11.3994 272.014 9.78261 272.014Z" stroke="black"/>
</svg>
