<svg width="161" height="66" viewBox="0 0 161 66" fill="none" xmlns="http://www.w3.org/2000/svg">
<path fill-rule="evenodd" clip-rule="evenodd" d="M120.546 0.52203C117.636 1.80039 112.222 5.40303 108.729 8.36649L105.586 11.0394H90.3921C77.5852 11.0394 74.6164 11.2137 71.0072 12.0853C68.6204 12.7245 66.583 13.538 66.4083 14.0029C65.9426 15.2231 66.6412 15.688 67.6308 14.8745C70.0175 12.8407 88.0636 11.7948 99.8808 13.0151L103.548 13.3637L100.812 16.5596C99.2987 18.3028 96.9702 21.4406 95.6313 23.5325C92.4295 28.4716 85.6186 34.5728 83.2901 34.5728C81.6019 34.5728 82.6497 31.8999 85.444 29.227C88.2382 26.554 90.2174 25.7405 90.9742 27.0189C91.1488 27.3094 91.5563 27.6 91.9056 27.6C92.837 27.6 92.4877 26.4378 90.9742 24.927C89.8682 23.823 89.1696 23.5906 87.9471 23.8811C86.0843 24.346 77.2359 29.4013 70.5415 33.7593C65.6516 36.9552 63.9052 37.8849 63.9052 37.2457C63.9052 36.6647 65.6516 33.9336 67.8636 31.2026C69.7847 28.8202 70.0757 26.554 68.3876 27.1932C67.9219 27.3675 62.4498 30.7958 56.1046 34.8633C49.8176 38.9308 44.462 42.1267 44.2874 41.9524C43.8799 41.5457 45.5681 38.8727 49.3519 33.7012C53.6597 27.8905 53.194 25.3919 48.013 26.3797C46.4995 26.6702 45.277 26.7283 45.277 26.6121C45.277 26.4378 46.0338 25.3338 46.9652 24.1716C50.1087 20.1041 47.198 19.1163 43.8799 23.1838C42.7156 24.5203 41.7842 25.9148 41.7842 26.2635C41.7842 26.8446 31.6552 31.7837 28.3952 32.7715C25.7756 33.5269 20.2454 34.2242 20.2454 33.8174C20.2454 32.9458 26.1249 21.1501 27.9877 18.1866C29.8506 15.3393 30.4909 14.8164 33.1687 13.9448C39.6886 11.7948 45.8591 7.72731 45.8591 5.57735C45.8591 3.89224 43.9381 2.61388 41.4349 2.61388C38.3497 2.61388 34.1001 5.51924 30.1416 10.4002C28.4534 12.4921 26.8235 14.2353 26.5906 14.2353C21.9336 14.2353 7.55498 17.6055 3.42185 19.6974C0.22014 21.3244 -0.536629 22.196 0.336566 23.0676C0.744057 23.4743 1.26797 23.3 2.08296 22.4865C2.7233 21.8473 4.70254 20.8014 6.44893 20.1622C10.3492 18.7096 26.0667 15.3393 26.0667 15.9785C26.0667 16.211 25.5428 17.0826 24.9025 17.838C23.68 19.4068 17.8005 31.0283 17.1019 33.2363C16.7526 34.3404 16.2287 34.5728 13.9584 34.6309C10.5238 34.689 7.2057 35.8512 6.97285 37.0714C6.74 38.1755 8.02068 38.4079 8.95209 37.4782C9.53422 36.8971 15.1227 35.6768 15.4719 36.0255C15.5884 36.1417 14.657 39.0471 13.3181 42.5335C9.8835 51.8887 9.47601 53.5157 10.3492 54.6198C11.5135 56.0143 11.8627 55.6657 12.7359 52.7022C13.1434 51.1914 14.7152 46.8334 16.2287 42.9983L18.9647 36.0255L22.3411 35.6187C27.522 34.9215 31.6552 33.585 37.36 30.7377C40.3871 29.1688 42.8903 28.2972 43.5306 28.4716C44.1127 28.6459 45.8009 28.5297 47.2562 28.1229C48.7698 27.7743 50.1087 27.6 50.3415 27.7743C50.5162 27.9486 49.0608 29.8661 47.1398 32.0742C42.4246 37.2457 40.7364 40.3254 41.5514 42.5335C42.5992 45.6132 44.3456 45.0902 53.6597 38.6984C58.3167 35.5025 62.3916 32.7715 62.7409 32.5391C63.032 32.3647 62.9155 33.1201 62.4498 34.2242C61.3438 36.8971 61.3438 37.2457 62.7409 38.6403C63.4395 39.3376 64.2544 39.6281 64.8948 39.3957C65.4769 39.1633 69.1443 36.7809 73.1028 34.108C77.0613 31.435 80.3794 29.3432 80.5541 29.4594C80.6705 29.6337 80.5541 30.4472 80.263 31.3188C79.448 33.2945 80.3212 35.5606 82.1841 36.4322C84.1633 37.3038 86.3754 36.316 89.5189 33.2363L91.9638 30.7958L91.6146 32.6553C91.0906 34.9215 92.1967 36.8971 94.0595 36.8971C94.8163 36.8971 97.8433 35.212 100.754 33.2363L101.153 32.9609C105.852 29.7196 107.224 28.773 107.451 28.9955C107.545 29.0873 107.444 29.378 107.301 29.7887L107.274 29.8661C106.692 31.6675 108.031 34.5147 109.602 34.9215C110.999 35.2701 114.958 33.5269 116.239 32.0161C117.286 30.7958 118.043 30.854 118.043 32.1323C118.043 32.7715 118.567 33.7012 119.149 34.2242C120.837 35.735 121.769 35.3282 129.278 29.9242C130.384 29.1107 130.443 29.1688 130.093 30.5634C129.628 32.3647 131.025 34.5728 132.655 34.5728C134.11 34.5728 135.856 33.7012 138.069 31.8418C139 31.0864 139.815 30.5634 139.99 30.6796C140.222 30.9702 135.624 39.6862 135.041 40.0349C134.809 40.1511 131.374 40.9646 127.357 41.7781C123.341 42.6497 118.742 43.9862 117.112 44.7416C113.037 46.7172 109.078 50.3198 107.623 53.3414C105.295 58.1643 106.634 63.7426 110.417 65.3696C112.746 66.2993 118.043 66.1831 120.546 65.1372C125.436 63.1615 131.549 55.4914 136.439 45.2645C138.651 40.7322 138.767 40.5578 142.551 38.7565C148.489 35.9674 155.3 29.1688 159.607 21.673C161.296 18.7677 161.47 15.9785 160.015 15.5137C159.433 15.3393 159.316 15.5137 159.549 16.1528C160.248 17.9542 156.056 24.4622 150.41 30.4472C147.732 33.2363 141.27 38.0592 140.106 38.0592C139.873 38.0592 140.339 36.6647 141.212 34.9796C145.403 26.9608 146.742 23.4743 145.986 22.7771C145.462 22.2541 144.996 22.4865 144.006 23.823C141.911 26.7864 138.767 29.5756 135.624 31.2607C131.782 33.3526 131.723 32.6553 135.216 27.3094C137.894 23.3 138.01 21.8473 135.565 22.6608C134.867 22.8352 134.052 23.5325 133.761 24.1716C132.713 26.0311 121.303 33.3526 120.488 32.5972C119.964 32.0161 121.361 29.5175 123.632 27.077C124.912 25.6243 125.611 24.346 125.378 23.823C124.912 22.5446 124.156 22.719 121.885 24.6946L119.906 26.4378L119.557 24.9851C119.324 24.1716 118.509 23.1257 117.752 22.6027C116.472 21.7892 116.006 21.7311 114.492 22.4284C113.444 22.8352 111.873 23.7649 110.941 24.5784C110.01 25.3338 107.274 27.1932 104.771 28.704C104.177 29.0706 103.526 29.4713 102.855 29.8839C100.762 31.1717 98.4816 32.5745 97.203 33.4107C95.5148 34.4566 94.0013 35.1539 93.7684 34.9796C92.9535 34.1079 100.521 22.3122 106.226 15.5137C108.496 12.8407 109.078 12.4921 110.999 12.4921C116.122 12.4921 123.457 8.94756 125.611 5.40303C126.95 3.13685 127.008 2.61389 126.077 1.27742C124.971 -0.0590398 122.7 -0.40768 120.546 0.52203ZM125.029 2.84631C125.029 5.40303 119.382 9.29621 113.735 10.6908C110.592 11.4462 109.719 11.1556 111.407 9.87728C120.022 3.07874 125.029 0.52203 125.029 2.84631ZM42.2499 7.43678C43.2395 6.68138 44.1127 5.63545 44.1127 5.1706C44.1127 3.95035 41.2603 4.12467 38.99 5.51924C36.9525 6.73949 31.888 11.7948 31.888 12.6083C31.888 13.2475 39.7468 9.2962 42.2499 7.43678ZM118.684 26.2054C119.033 27.2513 118.684 27.7743 116.122 29.5175C112.338 32.0742 110.476 33.0039 110.068 32.5972C109.37 31.8999 111.349 28.6459 113.619 26.7283C116.239 24.4622 117.985 24.346 118.684 26.2054ZM114.376 64.2074C120.372 64.2074 124.738 59.8494 131.898 46.601C133.353 43.9862 134.052 42.1267 133.644 42.1848C130.967 42.4173 119.091 45.6132 117.112 46.6591C106.983 51.9468 105.062 64.2074 114.376 64.2074Z" fill="#607F90"/>
</svg>
