<svg width="32" height="44" viewBox="0 0 32 44" fill="none" xmlns="http://www.w3.org/2000/svg">
<path d="M28.389 15.7641L27.889 12.7641V11.4723C27.889 11.0066 27.7806 10.5472 27.5723 10.1306L27.389 9.76407C27.3256 9.6371 27.3665 9.69649 27.3216 9.56182L27.0285 8.68244C26.9361 8.40535 26.889 8.11518 26.889 7.8231C26.889 7.4805 27.0826 7.1673 27.389 7.01408C27.6954 6.86087 27.889 6.54767 27.889 6.20507V5.75731C27.889 5.4357 27.7938 5.12129 27.6154 4.8537L27.2218 4.26331C27.0021 3.93376 26.7189 3.65183 26.3939 3.42542C25.9104 3.08854 25.2028 2.57786 24.889 2.26408C24.5218 1.89687 23.3455 1.79935 22.7467 1.77345C22.5111 1.76326 22.2792 1.81899 22.0683 1.92444L21.8362 2.04048C21.5547 2.18124 21.2233 2.18124 20.9418 2.04048L20.7307 1.9349C20.5213 1.83021 20.389 1.61621 20.389 1.38212C20.389 1.04079 20.1123 0.764083 19.771 0.764083H19.389C19.1129 0.764083 18.889 0.987941 18.889 1.26408V1.51408C18.889 1.65215 18.7771 1.76408 18.639 1.76408C18.5009 1.76408 18.389 1.65215 18.389 1.51408V0.691134C18.389 0.429409 18.2411 0.190147 18.007 0.0731004C17.6657 -0.097565 17.2507 0.0407866 17.08 0.382117C16.9629 0.616211 16.7237 0.764083 16.462 0.764083H14.0257C13.6059 0.764083 13.1908 0.85217 12.8072 1.02265L9.57666 2.45846C9.12522 2.6591 8.73032 2.96812 8.42702 3.35807L5.64907 6.92972C5.47655 7.15153 5.33606 7.39647 5.2317 7.65737L4.38901 9.76408L3.70573 11.1306C3.49745 11.5472 3.38901 12.0066 3.38901 12.4723V15.2773C3.38901 15.5997 3.441 15.92 3.54296 16.2259L3.85089 17.1497C3.87619 17.2256 3.9115 17.2978 3.95589 17.3644C4.35475 17.9627 3.92586 18.7641 3.2068 18.7641H3.04883C2.94298 18.7641 2.83782 18.7811 2.7374 18.8146L2.06087 19.0401C1.61904 19.1874 1.21756 19.4355 0.888238 19.7649L0.611553 20.0415C0.464157 20.1889 0.341489 20.3591 0.248268 20.5456L0.147075 20.748C-0.0181588 21.0784 -0.0453473 21.461 0.0714909 21.8115L0.151843 22.0526C0.293479 22.4775 0.691121 22.7641 1.13901 22.7641C1.58691 22.7641 1.98455 23.0507 2.12618 23.4756L2.53295 24.6959C2.69654 25.1867 3.3194 25.3337 3.68519 24.9679C3.8157 24.8374 3.88901 24.6604 3.88901 24.4758V21.9776C3.88901 21.3074 4.43233 20.7641 5.10254 20.7641C5.29093 20.7641 5.47619 20.8085 5.64817 20.8854C5.97909 21.0334 6.54939 21.2641 6.88901 21.2641C7.2072 21.2641 6.71546 22.074 6.31576 22.663C6.10011 22.9808 6.20522 23.4222 6.54873 23.5939C6.75728 23.6982 6.88901 23.9114 6.88901 24.1445V24.7641C6.88901 25.3769 7.23528 25.9372 7.78344 26.2113L8.25602 26.4476C8.67229 26.6557 9.13131 26.7641 9.59672 26.7641C11.1699 26.7641 12.5788 28.0184 12.1691 29.5373C12.098 29.8009 12.0065 30.0494 11.889 30.2641C11.5226 30.9337 10.7075 31.6329 10.2388 32.0011C10.0104 32.1805 9.74904 32.3107 9.47348 32.4026L9.27805 32.4677C8.69915 32.6607 8.19305 33.025 7.82967 33.5152C6.62413 35.1416 3.88901 38.8743 3.88901 39.2641C3.88901 39.7641 5.15304 39.6579 5.88901 39.7641C6.53479 39.8573 8.74198 40.9418 9.27329 41.2062C9.35079 41.2448 9.42868 41.28 9.50911 41.312C10.2729 41.6159 14.4351 43.2641 14.889 43.2641H21.7048C21.8292 43.2641 21.9509 43.2563 22.0743 43.2409L25.1863 42.8519C25.6484 42.7942 26.0912 42.6305 26.4728 42.3636C27.3456 41.7531 28.889 40.6227 28.889 40.2641C28.889 39.7641 21.889 34.7641 21.389 34.2641C20.889 33.7641 22.389 26.7641 22.889 26.7641C23.389 26.7641 28.389 26.7641 28.889 26.2641C29.288 25.8651 29.0503 24.1929 28.9379 23.5333C28.914 23.3931 29.0216 23.2641 29.1638 23.2641C29.2882 23.2641 29.389 23.1632 29.389 23.0388V22.4735C29.389 22.3578 29.4828 22.2641 29.5984 22.2641C29.7414 22.2641 29.8423 22.124 29.7971 21.9884L29.4414 20.9212C29.4067 20.8171 29.389 20.7078 29.389 20.5982C29.389 19.9219 30.0262 19.4419 30.7013 19.4811C31.078 19.5029 31.389 19.4613 31.389 19.2641C31.389 18.7641 30.889 17.7641 30.389 17.2641L28.389 15.7641Z" fill="#A5CBE8"/>
</svg>
