<svg width="172" height="66" viewBox="0 0 172 66" fill="none" xmlns="http://www.w3.org/2000/svg">
<path fill-rule="evenodd" clip-rule="evenodd" d="M117.699 7.21922C120.297 4.80275 123.378 2.62792 126.097 1.17803C128.996 -0.392677 132.923 -0.392677 133.89 1.17803C135.34 3.5341 128.453 8.18581 121.566 9.57529C120.433 9.80185 119.686 9.95116 119.029 10.2794C117.759 10.9139 116.822 12.2171 114.075 16.0394C110.269 21.3556 107.127 27.276 107.067 29.2696C107.067 29.6924 107.49 30.0549 107.973 30.0549C108.819 30.0549 117.82 24.497 122.11 21.2952C124.345 19.6641 127.486 19.3016 128.694 20.5098C129.903 21.7181 129.54 22.2014 127.486 22.2014C125.976 22.2014 124.888 22.9263 122.23 25.5844C118.424 29.4508 118.847 30.7799 122.955 27.6989C128.634 23.47 133.105 20.389 133.648 20.389C135.159 20.389 134.736 21.8993 132.561 24.2554C131.232 25.7053 129.842 27.4572 129.48 28.1822C127.667 31.5048 134.373 27.8197 141.139 21.7785C142.77 20.3286 144.522 19.2412 145.066 19.3016C146.335 19.5432 146.697 21.5973 145.549 21.5973C145.006 21.5973 143.495 22.8659 142.166 24.3762C136.186 31.1423 141.441 29.7529 150.684 22.141C152.255 20.8119 153.645 19.7849 153.826 19.7849C154.672 19.7849 154.067 21.7785 152.678 24.0741C151.832 25.4032 150.141 28.7259 148.932 31.4444C147.785 34.1629 146.516 36.7606 146.153 37.1835C144.643 39.1167 146.637 38.3918 150.986 35.4316C158.357 30.4174 164.398 23.9533 167.358 18.033C169.956 12.9584 170.379 11.0856 169.291 10.4211C168.385 9.87734 168.566 8.91076 169.593 8.91076C171.104 8.91076 171.647 11.3272 170.802 14.1666C169.775 17.5497 166.089 24.195 163.431 27.4572C161.015 30.4174 153.705 36.0961 148.57 39.0563C145.247 40.9291 145.066 41.2311 141.623 48.3597C137.575 56.6966 134.192 61.2275 129.782 64.0668C127.063 65.7584 126.278 66 122.412 66C117.216 66 115.102 64.7918 113.773 61.1066C113.048 58.9922 113.048 58.4485 113.954 56.6362C115.525 53.3135 121.022 49.8096 131.957 45.0975L142.045 40.7478L144.22 35.5524C145.489 32.713 146.999 29.4508 147.664 28.3634C148.328 27.276 148.812 26.249 148.63 26.1281C148.51 26.0073 147.362 26.8531 146.033 27.9405C142.529 31.0215 140.535 31.686 139.085 30.357C138.421 29.7529 137.877 28.7863 137.877 28.1217C137.877 27.2156 137.454 27.3364 134.977 29.0883C131.353 31.7465 129.299 32.2902 127.969 30.9611C127.426 30.4174 127.003 29.3904 127.003 28.6654C127.003 27.4572 126.942 27.4572 125.372 28.9675C122.955 31.1423 121.083 32.0485 119.451 31.6256C117.941 31.2632 116.975 29.33 117.277 27.3968C117.397 26.551 116.612 26.9135 113.894 28.9675C111.96 30.4778 109.786 31.8673 109.061 32.1089C107.49 32.5922 105.255 31.5652 105.255 30.357C105.255 28.6654 103.986 28.8467 101.751 30.9007C99.2134 33.3172 96.6761 34.5858 95.3471 34.1025C94.8638 33.9213 94.018 33.0755 93.4139 32.2297C92.5077 30.7799 92.5077 30.5382 93.4743 29.0883C94.018 28.2426 94.3805 27.4572 94.2597 27.276C94.1388 27.1552 92.1452 28.4238 89.91 30.0549C84.775 33.74 82.4793 34.7066 81.1503 33.8609C79.5796 32.8943 79.64 31.384 81.3919 28.7259C82.2981 27.3968 82.9022 26.1886 82.7814 26.0677C82.2981 25.6449 76.861 29.3904 73.9008 32.1693C72.3301 33.6796 70.8198 34.7066 70.6386 34.465C69.672 33.5588 70.4574 32.1089 73.9613 28.4842C76.0153 26.3698 77.5256 24.497 77.4047 24.4366C77.2839 24.3158 75.4715 24.7387 73.4175 25.3428C70.4574 26.249 69.4304 26.8531 68.7054 28.1822C68.2221 29.1487 66.9535 30.659 65.9265 31.5048C63.6308 33.438 60.731 33.438 59.704 31.5652C59.3416 30.9007 58.9791 30.2361 58.8583 30.1153C58.7979 29.9341 58.1333 30.4174 57.348 31.0819C52.9379 35.1295 47.2592 37.2439 46.4134 35.1295C45.7489 33.438 46.051 32.5922 48.2258 29.7529C49.3736 28.1822 50.2194 26.7927 50.0985 26.6114C49.1924 25.7053 38.0162 33.0755 35.5393 36.2169C34.0894 38.0897 33.9686 38.1501 33.002 37.1835C32.0354 36.2773 32.0958 36.0357 34.029 33.5588C35.1768 32.1089 38.4995 28.4238 41.3992 25.2824C44.299 22.2014 46.5947 19.5433 46.4738 19.362C45.9301 18.8787 39.5265 21.7181 34.6935 24.5574C27.8066 28.6654 18.926 35.492 15.3013 39.4792C12.0391 43.0435 11.0121 43.4664 11.0121 41.3519C11.0121 39.4188 22.3695 27.0343 33.1228 17.308C41.8221 9.39405 42.0034 9.21281 40.1306 9.03158C34.8747 8.48787 16.2075 17.0059 4.18551 25.4032C1.88985 27.0343 0.500381 27.6384 0.0774972 27.2156C-0.284974 26.8531 0.621204 25.8865 2.85644 24.3762C21.4029 12.0522 39.8285 4.5611 43.2116 7.94416C43.7553 8.54828 44.2386 9.27322 44.2386 9.6357C44.2386 10.3606 40.9764 13.6229 30.6459 23.3492C23.4569 30.0549 23.3965 30.2966 29.9814 25.5844C35.1164 21.8993 43.0304 17.9121 46.051 17.5497C47.5612 17.308 48.4674 17.5497 49.0111 18.2142C50.0381 19.4224 48.407 22.2014 44.4802 25.8261C42.9699 27.2156 41.8221 28.4238 41.9429 28.5446C42.0638 28.6654 43.5137 27.9405 45.1448 26.9135C46.8967 25.8261 49.0715 24.9803 50.2798 24.9803C53.4212 24.9199 53.4212 27.0343 50.2798 30.9611C48.9507 32.5922 48.1654 34.1025 48.5278 34.1629C49.2528 34.465 56.2002 30.357 60.6102 27.0343C64.2953 24.2554 66.2889 23.5304 67.7992 24.497C68.5242 24.9199 69.9137 24.7991 73.0551 23.8325C77.6464 22.5034 79.2775 22.6847 79.2775 24.5574C79.2775 25.7053 79.3983 25.7053 81.4523 24.8595C83.1439 24.1346 83.8084 24.1346 84.4729 24.6783C85.7416 25.7053 85.4999 26.7927 83.5063 29.5716C82.4793 30.9611 81.8148 32.1693 81.9356 32.2902C82.2981 32.6526 85.6207 30.9007 88.3393 28.9071C89.5475 28.0613 93.0514 26.1281 96.1324 24.6178C101.932 21.8389 103.442 21.7785 103.926 24.3158C104.107 25.222 103.865 25.2824 102.596 24.9803C101.267 24.6783 100.542 25.0407 98.0052 27.578C92.7494 32.8339 94.5013 33.4984 100.905 28.6654C104.046 26.3698 105.436 24.9199 106.1 23.1076C106.644 21.7785 108.517 18.7579 110.39 16.4622C110.907 15.8031 111.385 15.2118 111.814 14.6817C113.366 12.7654 114.27 11.648 114.008 11.0113C113.641 10.121 110.992 10.1709 104.638 10.2907C103.43 10.3135 102.088 10.3388 100.603 10.3606C88.3393 10.5419 85.4999 10.7835 81.4523 11.8709C78.7942 12.5959 76.3173 13.4416 75.834 13.8041C75.4111 14.227 74.8674 14.3478 74.6258 14.1062C73.78 13.2604 76.2569 11.8105 80.5462 10.6023C84.4125 9.51487 87.1915 9.27323 100.482 9.09199L115.948 8.78993L117.699 7.21922ZM120.599 8.1254C121.566 9.09199 132.44 3.71533 132.44 2.26545C132.44 1.60091 130.326 1.5405 128.815 2.08421C127.305 2.68833 120.237 7.82334 120.599 8.1254ZM65.8056 28.5446C65.5036 29.33 61.8185 31.5048 61.3956 31.0819C60.6102 30.2966 63.0871 27.7593 64.4766 27.8801C65.3223 27.8801 65.9265 28.1821 65.8056 28.5446ZM126.097 62.7378C130.567 60.7442 136.608 52.951 140.777 43.7684C141.139 43.0435 140.173 43.3455 136.971 44.8558C118.847 53.4947 118.122 53.9176 115.827 57.4819C114.921 58.811 114.86 59.2943 115.525 60.865C115.948 61.892 116.793 62.9794 117.397 63.2815C119.089 64.2481 123.439 63.946 126.097 62.7378Z" fill="#607F90"/>
</svg>
