<svg width="73" height="71" viewBox="0 0 73 71" fill="none" xmlns="http://www.w3.org/2000/svg">
<path d="M50.4415 0.522873C50.7002 0.744857 50.7002 6.55344 50.4785 13.3979L50.072 25.866L53.4348 27.3829C55.3194 28.2339 57.1671 28.9368 57.5366 28.9368C57.9431 28.9368 58.3866 29.1958 58.4974 29.5658C58.7561 30.1577 64.8904 33.7465 70.3595 36.4473C75.2743 38.8891 73.0201 42.5148 66.1468 43.2548C64.1144 43.4768 61.4537 43.8467 60.2342 44.0687C59.0148 44.2907 56.3541 44.7347 54.3217 45.0307L50.6263 45.5856L50.2568 58.1647C49.9242 69.5229 49.7764 70.7438 48.5569 70.9658C46.9679 71.2988 42.127 69.1159 42.127 68.117C42.127 66.8961 39.5772 61.4945 38.986 61.4945C38.6903 61.4945 38.4317 61.1245 38.4317 60.7175C38.4317 59.7556 33.9972 53.0961 33.1104 52.7261C32.7778 52.6151 32.5191 52.0232 32.5191 51.4312C32.5191 49.6923 30.8562 49.5443 26.2 50.8022C21.3961 52.1341 17.1095 53.1701 13.6728 53.799C12.4533 54.021 11.123 54.539 10.7535 54.9089C10.3839 55.2789 9.12752 55.5749 8.01891 55.5749C6.91031 55.5749 5.8017 55.9079 5.54303 56.3148C4.65615 57.7577 -4.61669e-08 57.2028 -4.61669e-08 55.6489C-4.61669e-08 52.7261 8.57322 40.776 16.7769 32.2666C18.7354 30.2317 18.9202 29.7138 17.9594 29.3438C17.3312 29.1218 16.9617 28.7518 17.1464 28.5299C17.3682 28.3449 16.4074 26.976 15.0401 25.5331C13.6728 24.0902 12.5642 22.6103 12.5642 22.2403C12.5642 21.8703 11.4925 19.7985 10.1622 17.6526C4.47137 8.4403 4.02793 5.99847 7.94501 5.99847C10.2361 5.99847 14.0423 7.51537 14.0423 8.4033C14.0423 8.69928 14.6336 8.95826 15.3727 8.95826C17.0356 8.95826 20.694 10.6231 20.694 11.3631C20.694 11.6591 21.0266 11.918 21.3961 11.918C21.8026 11.918 23.7981 12.917 25.8675 14.1379C31.5953 17.5046 32.7408 16.8387 43.9747 3.55665C46.6723 0.374878 49.1482 -0.772034 50.4415 0.522873Z" fill="#00A3D7" fill-opacity="0.5"/>
</svg>
