<svg width="201" height="61" viewBox="0 0 201 61" fill="none" xmlns="http://www.w3.org/2000/svg">
<path fill-rule="evenodd" clip-rule="evenodd" d="M157.202 1.62783C155.302 2.54125 151.713 5.00045 149.25 7.03808L144.747 10.762H126.733C111.604 10.8323 108.015 10.9728 104.496 12.0267C102.174 12.7294 99.9929 13.5725 99.641 13.9238C98.304 15.2588 99.9225 15.4696 103.23 14.3454C109.563 12.3078 117.937 11.6754 130.744 12.1673C137.358 12.4483 142.847 12.8699 142.847 13.151C142.847 13.3617 141.651 14.6967 140.314 16.0317C138.906 17.3667 136.303 20.5286 134.544 23.058C132.784 25.5875 131.236 27.7656 131.095 27.9062C131.025 28.0467 130.321 27.6954 129.618 27.063C128.914 26.3604 127.859 25.8685 127.296 25.8685C126.17 25.8685 117.726 29.2412 113.574 31.349C110.9 32.684 110.759 32.684 109.211 31.4896L107.663 30.2248L109.493 28.7493C110.478 27.9764 111.111 26.9927 110.83 26.5712C110.196 25.5172 109.281 25.6578 107.1 27.1333C99.1484 32.5435 92.8857 36.2675 92.8857 35.6351C92.8857 35.2135 93.7301 33.8083 94.7153 32.5435C96.7559 29.8033 96.6856 27.9764 94.5042 26.8522C93.3783 26.2901 93.1672 25.8685 93.7301 25.3064C94.1523 24.8849 94.293 24.0417 94.0116 23.4093C93.7301 22.5662 93.3079 22.4257 92.2524 23.058C90.1413 24.1822 88.6636 25.7983 89.0155 26.782C89.2266 27.2738 86.4118 29.9438 82.8231 32.7543C79.3047 35.5648 76.2789 37.5322 76.0677 37.0403C75.927 36.6188 76.7011 35.4243 77.6862 34.3704C78.6714 33.3164 79.5158 32.1219 79.5158 31.7004C79.5158 29.6627 77.7566 30.2248 74.3789 33.4569C67.6236 39.7806 65.0904 39.7103 70.0161 33.3164C72.9012 29.5222 72.9012 29.3817 71.0716 29.3817C69.3124 29.3817 63.12 32.7543 57.1388 36.8998C54.7463 38.6564 52.4241 39.9211 52.0019 39.7806C51.6501 39.6401 52.6352 37.4619 54.1833 34.8622C55.7314 32.2625 56.998 29.6627 56.998 29.0304C56.998 26.9225 54.6759 26.9927 50.3835 29.2412C48.0613 30.4356 46.091 31.349 46.0206 31.2788C45.7392 30.9977 54.3944 20.5286 60.0942 14.3454C64.5274 9.49728 65.5126 8.09202 64.8089 7.38939C62.6978 5.35177 39.8986 32.5435 38.2098 39.0077C37.5765 41.6074 38.7024 41.8885 40.3912 39.5698C43.5578 35.073 51.6501 28.8898 53.4796 29.5222C53.9019 29.6627 53.0574 31.2788 51.7204 33.2461C49.8205 35.9161 49.2576 37.3214 49.3983 39.1482C49.8205 43.6451 51.1575 43.4343 59.0387 37.9538C62.9793 35.1432 66.357 32.8948 66.4977 32.8948C66.6385 32.8948 66.2866 33.8083 65.5829 34.9325C64.6681 36.6188 64.5978 37.3214 65.3015 38.7969C66.357 41.1156 68.2569 41.1156 70.8605 38.9374L70.8919 38.9115C72.9019 37.2505 72.9774 37.1881 74.0975 38.5861C74.7308 39.2888 75.5752 39.9211 75.8566 39.9211C76.7011 39.9211 81.9083 36.1269 86.6229 32.0517C88.8043 30.2248 91.2672 28.6791 92.1116 28.6791C93.9412 28.6791 93.9412 28.7493 91.8302 31.9112C89.7895 34.9325 89.6488 35.9161 91.1969 37.4619C92.6042 38.8672 93.0264 38.7267 99.641 34.2298C104.356 31.068 105.059 30.7869 106.115 31.7004C106.748 32.2625 107.733 32.8246 108.226 32.9651C108.93 33.1759 108.789 33.738 107.663 35.2135C106.256 36.9701 106.256 37.1809 107.381 37.6024C108.226 37.8835 109.07 37.4619 110.055 36.2675C110.9 35.2838 113.433 33.5272 115.685 32.3327C120.048 30.0141 121.948 29.452 120.47 30.9275C119.203 32.1922 119.414 34.6514 120.892 35.9161C122.651 37.5322 123.566 37.3917 126.31 35.2838L128.703 33.4569L128.281 37.0403C127.507 43.8559 130.251 44.418 137.499 39.0077C145.169 33.2461 149.813 30.0843 150.587 30.0843C150.939 30.0843 151.291 30.7167 151.291 31.4193C151.291 33.3867 153.332 33.8083 155.654 32.3327C156.743 31.6441 157.27 31.3107 157.747 31.3711C158.196 31.4277 158.6 31.8314 159.383 32.6138C160.861 34.0893 161.283 34.1596 163.394 33.4569C164.661 33.0354 167.124 31.7004 168.883 30.5059C170.642 29.2412 172.401 28.0467 172.824 27.7656C173.316 27.4846 173.527 28.3277 173.527 30.2951C173.457 32.8246 173.668 33.2461 175.005 33.4569C175.99 33.5975 177.538 32.7543 179.368 31.068C182.746 28.0467 182.957 28.6791 180.353 33.9488C178.523 37.6024 178.242 37.8835 173.457 39.6401C171.971 40.2256 169.834 41.0279 167.697 41.8303C165.988 42.4722 164.278 43.1142 162.902 43.6451C155.935 46.2448 151.291 50.3903 151.291 53.9737C151.291 57.4166 155.161 61 158.961 61C162.691 61 165.787 59.665 169.235 56.714C172.401 53.9035 177.961 45.7529 179.649 41.2561C180.564 38.7969 181.479 37.8132 184.153 36.408C188.516 34.0893 195.271 27.2035 198.649 21.5825C201.323 16.9452 201.675 15.3291 199.915 14.767C199.282 14.5562 199.071 14.767 199.352 15.4696C199.845 16.8749 196.608 22.4959 192.738 26.8522C189.642 30.3654 182.957 35.9864 182.464 35.4946C182.323 35.354 183.168 33.0354 184.364 30.4356C187.46 23.5499 186.757 22.9175 181.057 27.6251C174.864 32.7543 173.527 32.7543 176.975 27.6954C180.353 22.7067 177.257 22.6364 169.235 27.6251C161.635 32.3327 157.976 32.7543 162.55 28.3277C164.802 26.1496 165.294 24.4633 163.605 24.4633C163.043 24.4633 162.55 24.1822 162.55 23.8309C162.55 21.6528 157.695 22.9878 152.135 26.782L152.134 26.7828L152.131 26.7846C150.861 27.6305 147.065 30.1569 143.691 32.3327C140.314 34.5109 136.162 37.2511 134.473 38.4456C129.618 41.8885 129.196 41.2561 131.658 34.5811C134.544 26.8522 145.732 12.5186 148.899 12.5186C151.573 12.5186 158.187 9.98912 160.861 7.9515C163.817 5.70308 164.591 3.17361 162.902 1.27652L162.796 1.16149C162.24 0.556815 161.895 0.181266 161.473 0.0512917C160.783 -0.161729 159.889 0.284908 157.531 1.46358L157.202 1.62783ZM162.198 2.68177C163.324 4.50861 156.85 9.0757 150.587 10.8323L148.828 11.2539L150.587 9.35675C152.417 7.38939 160.157 1.97914 161.213 1.97914C161.494 1.97914 161.917 2.2602 162.198 2.68177ZM153.402 30.9977C153.402 31.8409 157.413 29.3114 159.524 27.1333C161.565 24.9551 161.213 24.7443 157.906 26.1496C155.795 27.063 153.402 29.6627 153.402 30.9977ZM129.336 28.8196C129.899 29.3817 129.266 30.2248 126.522 32.3327C124.551 33.8083 122.792 35.0027 122.651 35.0027C122.511 35.0027 122.44 34.5109 122.44 33.8785C122.44 32.7543 126.944 27.9764 127.999 27.9764C128.281 27.9764 128.844 28.3277 129.336 28.8196ZM41.3763 12.3781C42.2911 12.6591 48.3428 9.63782 50.6649 7.67046C52.4241 6.2652 51.7204 5.77336 49.2575 6.68678C47.0058 7.52993 40.6023 12.097 41.3763 12.3781ZM46.091 5.77333C44.1911 6.68675 40.8134 8.79464 38.7024 10.5512L34.8321 13.713L26.0361 14.2049C21.1807 14.4859 15.1995 15.1886 12.7366 15.7507C7.52937 16.9451 0 20.6691 0 22.0743C0 23.4093 0.422208 23.3391 3.37766 21.3014C6.89606 18.9125 13.5106 16.9451 19.7734 16.383C22.6585 16.1722 26.8806 15.8209 29.2027 15.6101L33.4248 15.2588L29.4138 19.3341C21.1104 27.9062 11.1885 42.5911 12.1737 45.0503C12.9477 47.0177 13.8625 46.3853 15.692 42.5208C18.1549 37.6727 26.9509 26.0793 33.0729 19.8259C36.8728 15.8912 38.4913 14.6967 40.6023 14.3454C43.6985 13.8536 52.6352 9.14595 53.6907 7.45964C54.6759 5.98412 53.1982 4.08702 51.0871 4.08702C50.3131 4.08702 48.0613 4.85992 46.091 5.77333ZM174.372 45.5422C175.99 42.8019 177.327 40.4832 177.327 40.2724C177.327 39.7806 176.412 39.9211 175.216 40.6238C174.583 40.9048 170.994 42.3803 167.194 43.8559C156.217 47.9311 153.402 50.1092 153.402 54.5358C153.402 57.2761 155.372 58.8921 158.75 58.8921C163.676 58.8921 169.165 54.1845 174.372 45.5422Z" fill="#607F90"/>
</svg>
