<svg width="168" height="66" viewBox="0 0 168 66" fill="none" xmlns="http://www.w3.org/2000/svg">
<path fill-rule="evenodd" clip-rule="evenodd" d="M125.363 5.38529C128.109 3.10702 131.497 0.887166 132.841 0.478246C135.411 -0.456431 136.813 -0.0475109 138.098 1.93867C139.617 4.33378 132.782 8.89033 126.181 9.94184C126.026 9.96809 125.879 9.99223 125.739 10.0152L125.737 10.0156C125.016 10.1338 124.474 10.2227 123.974 10.4189C122.461 11.0133 121.334 12.5929 116.795 18.957L116.309 19.6391C111.285 26.7076 109.24 30.1542 109.24 31.7315C109.24 33.1919 109.883 33.0751 112.804 30.8552C118.295 26.7076 125.539 22.2679 126.882 22.2679C128.401 22.2679 129.686 23.261 129.686 24.3709C129.686 24.7798 129.102 24.8967 128.226 24.7214C127.058 24.5462 126.181 25.0135 124.137 27.0581C121.683 29.5116 120.865 31.0305 121.975 31.0305C122.793 31.0305 130.212 25.4224 131.439 23.8451C132.841 22.0926 134.243 21.8005 134.769 23.2026C134.944 23.7283 134.418 24.8382 133.367 25.9482C131.38 27.9928 130.037 30.3879 130.504 30.8552C130.972 31.381 136.872 27.1165 139.909 24.0788C141.487 22.4431 143.122 21.0995 143.531 21.0995C145.05 21.0995 144.875 22.3847 143.122 24.4293C141.078 26.766 139.851 29.1027 140.377 29.6285C140.961 30.271 144.7 27.5838 147.445 24.5462C150.016 21.7421 151.301 20.9827 151.301 22.4431C151.301 22.8521 150.132 25.8897 148.672 29.2779C147.27 32.6662 146.043 35.7623 146.043 36.1712C146.043 37.3395 152.352 32.7246 156.091 28.869C159.538 25.3056 165.905 16.2509 165.905 14.8489C165.905 14.031 166.84 13.7974 167.307 14.5568C167.774 15.3162 164.97 20.2233 161.524 24.8967C157.668 30.1542 152.411 35.0028 148.205 37.1643C145.401 38.6247 144.933 39.1505 144.583 40.9614C144.407 42.0713 142.947 45.6932 141.311 48.9646C137.689 56.442 134.009 60.3559 127.233 63.7441C120.865 66.8987 118.412 66.7818 116.542 63.16C113.622 57.4351 118.704 48.2636 127.174 43.9991C129.044 43.0644 133.191 41.4287 136.404 40.3772L142.246 38.4495L144.115 33.7177C145.108 31.1473 145.868 28.9274 145.751 28.8106C145.634 28.6354 145.05 28.9859 144.524 29.5116C142.363 31.6731 140.902 32.3157 139.676 31.6146C138.975 31.2641 138.449 30.7968 138.449 30.5631C138.449 30.3295 138.215 29.8037 137.923 29.3948C137.573 28.7522 136.813 29.0443 134.71 30.68C131.497 33.1335 129.453 33.3672 128.46 31.4394C128.109 30.7384 127.7 30.0374 127.583 29.9205C127.466 29.8037 126.473 30.5047 125.305 31.5562C121.917 34.4771 118.762 33.6008 119.288 29.8621C119.463 28.9274 119.463 28.1096 119.346 28.1096C119.23 28.1096 117.243 29.57 114.907 31.3226C112.628 33.0751 110.233 34.5355 109.708 34.5355C108.422 34.5355 106.67 31.9067 107.137 30.7384C107.605 29.4532 107.254 29.6285 104.216 31.9067C101.237 34.185 100.419 34.3602 99.0757 33.0167C97.9658 31.9651 97.9073 30.271 98.7836 28.5769C99.3678 27.5254 99.3094 27.4086 98.3747 27.7591C95.2786 28.9274 89.9626 32.3741 89.6705 33.4256C89.1448 35.0028 86.6912 36.1712 85.7566 35.2365C85.2308 34.7108 85.4645 34.1266 86.6328 32.8998C88.5606 30.8552 88.619 30.3879 86.7496 28.8106L85.2892 27.5254L82.2515 29.8621C78.2792 32.8998 73.6642 34.4187 71.5027 33.4256C70.6849 33.0751 69.8671 32.2572 69.6918 31.6731C69.4581 30.7384 68.9908 30.8552 65.2521 32.8414C60.2866 35.4702 58.8846 35.6454 57.3074 33.6008L56.139 32.1404L53.9192 33.6008C50.1805 36.1712 46.1497 35.1197 46.1497 31.6731C46.1497 28.7522 52.1082 22.3263 54.036 23.0857C55.2627 23.5531 55.0875 24.3709 53.6271 25.4224C51.6409 26.8244 48.4863 31.0305 48.4863 32.2572C48.4863 35.0028 54.5617 31.7315 59.4104 26.4739C61.8639 23.7283 62.4481 23.3194 62.7986 24.1372C63.0907 24.8382 62.3897 26.3571 60.8124 28.7522C59.5272 30.7384 58.5341 32.5493 58.7094 32.8414C58.8846 33.0751 59.9945 32.9582 61.2213 32.4909C66.3036 30.68 68.874 29.1611 71.678 26.3571C74.7741 23.261 76.1761 22.9105 77.3445 24.7214C78.1039 25.9482 76.2345 28.168 73.1968 29.57C70.8017 30.7384 70.977 31.9651 73.5473 31.7315C77.4029 31.4394 81.4337 28.7522 86.3407 23.1441C87.4507 21.859 87.8596 21.7421 88.5606 22.3263C89.32 22.9105 89.2032 23.261 87.8596 24.663L86.3407 26.2403L88.2685 28.2264L90.1963 30.1542L98.0826 26.2403C102.464 24.0204 106.319 22.2679 106.67 22.2679C107.02 22.2679 107.721 22.7936 108.13 23.4946C108.948 24.663 109.065 24.5462 111.46 21.0995C112.862 19.1718 115.14 16.1341 116.601 14.3816C118.003 12.629 119.171 11.1102 119.171 10.9933C119.171 10.7597 110.759 10.1755 98.4331 9.64975C92.0072 9.35766 89.9626 9.4745 85.3476 10.526C82.3684 11.1686 79.5643 11.9864 79.1554 12.3369C78.5128 12.9211 77.695 12.5706 77.695 11.7528C77.695 10.7597 85.5813 8.59824 91.423 7.95565C93.3508 7.7804 100.653 8.01407 107.605 8.53982L120.223 9.4745L125.363 5.38529ZM128.985 7.54673C133.25 5.96946 136.696 3.80803 136.696 2.6981C136.696 0.828748 132.607 2.40601 127.642 6.20313C124.662 8.53982 125.13 9.00716 128.985 7.54673ZM107.488 25.4224C107.488 26.5323 101.88 31.2057 100.945 30.9136C100.536 30.7384 101.471 29.3948 103.223 27.6423C106.319 24.5462 107.488 23.962 107.488 25.4224ZM125.188 61.9332C131.731 58.6034 137.456 51.827 140.727 43.4149C141.37 41.7792 141.72 40.3772 141.487 40.4356C140.026 40.4941 128.051 45.2259 126.298 46.3942C119.755 50.7171 115.783 58.4866 118.003 62.6342C118.879 64.2115 120.982 64.0362 125.188 61.9332ZM50.7062 3.10701C48.8368 4.15852 45.0981 6.7873 42.4109 8.94874L37.4455 12.9211H24.0095C14.0786 12.9211 9.58043 13.1548 6.7764 13.7974C1.98619 14.9073 0 15.7836 0 16.8351C0 17.7113 1.51885 17.8866 2.0446 17.0687C2.21986 16.7767 4.14762 16.0756 6.4259 15.6083C9.40518 14.9073 13.6696 14.6736 23.1332 14.6736H35.8098L31.1364 19.4639C23.0164 27.7007 11.625 41.7792 9.28834 46.3358C8.06158 48.7309 8.23683 50.8923 9.69726 50.8923C10.1646 50.8923 10.5151 50.425 10.5151 49.8408C10.5151 47.3289 23.4253 31.1473 33.9404 20.4569C39.4901 14.7905 40.2495 14.2063 42.6446 13.9142C49.4794 12.9795 57.2489 9.35766 58.7678 6.37838C59.644 4.68428 59.644 4.50903 58.5341 3.0486C56.8984 0.828748 54.6786 0.887159 50.7062 3.10701ZM53.4518 8.42299C56.3727 6.90415 58.0668 5.03479 57.6579 3.86645C57.1905 2.81494 56.3727 2.75652 54.036 3.80803C52.0498 4.68429 42.411 11.6944 42.7615 12.0449C43.0535 12.3954 50.823 9.76659 53.4518 8.42299Z" fill="#607F90"/>
</svg>
