<svg width="205" height="67" viewBox="0 0 205 67" fill="none" xmlns="http://www.w3.org/2000/svg">
<path fill-rule="evenodd" clip-rule="evenodd" d="M163.483 7.81272C165.116 6.25272 167.885 3.91272 169.589 2.70727C172.855 0.36727 174.559 0.012724 176.831 1.21818C178.677 2.2109 178.535 4.90545 176.476 6.81999C174.63 8.52181 168.382 11.1454 166.039 11.1454C163.98 11.1454 161.282 14.1945 155.673 23.0582C151.129 30.0782 147.295 39.0127 148.147 40.4309C148.289 40.7145 149.354 40.4309 150.348 39.7927C153.756 37.5945 162.134 30.7164 163.909 28.66C166.394 25.7527 169.305 24.4054 171.08 25.3273C172.926 26.32 172.926 27.4545 171.08 27.4545C169.376 27.4545 163.767 32.3473 165.4 32.4182C166.536 32.4182 171.151 29.5109 173.494 27.3127C175.056 25.8945 176.76 25.6109 176.76 26.7454C176.76 27.1709 175.908 28.3054 174.843 29.2273C173.707 30.1491 173.068 31.1418 173.352 31.4254C174.062 32.0636 179.174 28.5182 181.375 25.8945C184.428 22.2782 186.203 23.8382 183.505 27.88C179.529 33.7654 183.079 32.9855 189.611 26.5327C195.362 20.86 196.001 22.2782 191.67 31.0709C190.108 34.2618 189.043 37.0982 189.256 37.3109C190.037 38.02 197.066 29.7236 199.338 25.4691C201.681 21.1436 203.172 15.9673 202.391 14.9036C202.178 14.5491 201.397 14.0527 200.687 13.7691C198.983 13.1309 199.835 11.8545 201.61 12.3509C205.231 13.2727 205.089 17.6691 201.184 25.8236C199.338 29.7945 197.563 31.9927 193.161 36.1054C189.185 39.7927 187.339 42.0618 186.7 44.1182C183.576 53.8327 175.908 63.1218 169.092 65.32C160.146 68.2982 155.531 63.2636 160.359 55.6764C162.915 51.6345 166.323 49.2945 176.973 44.26C181.517 42.0618 185.28 39.8636 185.28 39.3673C185.28 38.8709 186.274 36.3891 187.41 33.9782C188.617 31.4964 189.54 29.2982 189.54 29.0854C189.54 28.9436 188.049 30.0782 186.274 31.6382C184.428 33.2691 182.369 34.5454 181.659 34.5454C180.168 34.5454 178.606 32.0636 179.316 30.9291C179.529 30.5036 178.393 31.1418 176.76 32.3473C173.494 34.6873 171.293 35.1127 170.654 33.5527C170.37 32.7727 169.731 32.8436 167.53 34.0491C164.903 35.5382 164.761 35.5382 163.341 34.2618C161.921 32.9855 161.85 32.9855 157.093 37.1691C151.129 42.4873 149.496 43.3382 147.721 42.4164C145.094 40.9982 144.81 37.24 146.94 32.4891C147.721 30.7873 148.36 29.2982 148.36 29.0854C148.36 28.9436 146.869 29.9364 145.094 31.3545C143.248 32.7018 141.402 33.8364 140.976 33.8364C139.627 33.8364 138.42 32.2764 138.42 30.5036C138.42 29.5818 138.278 28.8727 138.065 28.8727C137.355 28.8727 130.184 33.7654 129.261 34.8291C128.196 36.1054 125.64 36.3891 125.64 35.1836C125.64 34.7582 126.35 33.8364 127.202 33.1273C128.551 32.0636 128.622 31.7091 127.841 30.7164C126.563 29.2273 125.427 29.2982 123.865 31C121.948 33.1273 116.765 35.9636 114.777 35.9636C113.641 35.9636 112.434 35.2545 111.653 34.12L110.304 32.2764L106.186 34.8291C101.926 37.5945 99.7961 37.7364 99.015 35.2545C98.731 34.3327 99.37 32.7727 100.79 30.6454C101.997 28.8727 102.707 27.4545 102.423 27.4545C100.648 27.4545 93.832 33.4109 92.909 35.7509C92.554 36.6727 91.844 37.3818 91.276 37.3818C89.5011 37.3818 89.5011 35.3964 91.276 32.7727C92.1991 31.3545 92.98 30.0782 92.98 29.9364C92.98 29.7945 90.6371 31.4254 87.868 33.4818C85.028 35.6091 82.1171 37.3818 81.4781 37.3818C79.916 37.3818 78.638 35.0418 79.277 33.34C79.632 32.3473 79.206 32.4891 77.6441 33.9073C76.508 34.9709 74.804 36.1764 73.8811 36.6727C72.319 37.4527 71.9641 37.3818 70.5441 35.68L68.911 33.8364L65.29 35.68C60.675 38.02 57.48 37.8073 56.202 35.0418C55.35 33.34 55.421 32.8436 56.699 30.7873C59.468 26.2491 64.2251 25.3273 64.2251 29.2273C64.2251 31 63.799 31.5673 61.243 32.7727C57.835 34.4036 57.409 35.2545 59.965 35.2545C62.024 35.2545 70.331 31.2836 71.183 29.9364C71.467 29.3691 72.816 28.3054 74.165 27.4545C76.082 26.2491 76.8631 26.1073 78.07 26.7454C78.851 27.1709 79.4901 27.8091 79.4901 28.1636C79.4901 29.6527 80.91 28.7309 82.472 26.1782C83.3241 24.76 85.454 21.8527 87.0871 19.7964L90.14 16.1091H82.827C75.159 16.1091 67.704 17.1018 66.142 18.4491C65.148 19.2291 63.16 17.9527 64.083 17.1018C65.361 15.8254 73.668 14.6909 81.9041 14.6909H90.9921L95.607 10.4364C100.719 5.68545 104.695 3.34545 107.819 3.34545C110.304 3.34545 111.014 4.19636 110.446 6.60727C109.878 8.80545 105.76 11.5 99.299 13.9109C94.329 15.6836 93.903 16.0382 89.5721 21.7818C84.886 28.0218 81.123 34.5454 82.259 34.5454C82.614 34.5454 86.448 32.1345 90.7791 29.1564C98.3051 24.0509 101.358 22.9873 100.293 25.7527C99.938 26.7454 100.08 26.8164 101.429 26.0364C102.636 25.3982 103.275 25.3982 104.056 26.1073C105.547 27.3127 105.263 29.0145 103.275 31.7091C101.003 34.7582 101.926 35.1836 105.689 32.8436C107.251 31.8509 109.168 31 109.949 31C110.659 31 111.795 30.22 112.434 29.2273C114.28 26.4618 116.907 24.9727 118.185 26.0364C120.031 27.5254 119.818 27.8091 114.28 32.3473L112.505 33.7654L114.351 33.8364C116.623 33.8364 124.93 28.5182 124.93 27.0291C124.93 25.3982 128.267 22.42 129.474 22.9164C131.036 23.4836 130.894 25.1145 129.19 26.1782C127.415 27.3127 127.415 28.2345 129.19 29.7945C130.539 30.9291 130.823 30.8582 135.367 28.3764C138.065 26.9582 141.118 25.0436 142.183 24.1218C144.455 22.2782 147.792 21.9945 149.07 23.5545C150.419 25.1854 150.916 24.9018 152.833 21.5691C153.827 19.9382 155.602 17.3145 156.88 15.7545L159.152 12.9182L154.253 12.4927C142.609 11.4291 132.385 11.9254 124.433 14.0527C121.167 14.9036 120.883 15.3291 122.232 16.6764C122.729 17.1727 122.8 17.5273 122.374 17.5273C121.948 17.5273 121.096 16.96 120.386 16.18C118.895 14.5491 119.605 13.9109 125.285 12.1382C128.906 11.0036 131.959 10.7909 145.023 10.7909L160.43 10.72L163.483 7.81272ZM165.684 9.51454C166.82 10.72 176.76 5.47272 176.76 3.7C176.76 1.64363 173.352 2.63636 169.305 5.89818C167.104 7.6709 165.471 9.30181 165.684 9.51454ZM101.216 11.5C105.192 9.72727 109.31 6.60727 109.31 5.3309C109.31 3.62908 104.056 6.18181 99.512 10.0818C97.808 11.5709 96.601 12.8473 96.743 13.06C96.956 13.2018 98.944 12.4927 101.216 11.5ZM141.189 30.8582C142.112 31.1418 148.36 26.32 148.36 25.2564C148.36 24.9018 147.792 24.6182 147.011 24.6182C145.378 24.6182 139.911 30.4327 141.189 30.8582ZM72.39 33.6236C72.39 35.0418 73.1711 34.7582 76.295 32.0636C79.3481 29.44 79.4901 28.66 76.65 29.7236C74.3781 30.5745 72.39 32.3473 72.39 33.6236ZM166.536 63.3345C171.719 61.7036 177.541 55.96 181.233 48.8691C182.795 45.9618 183.86 43.5509 183.718 43.48C183.434 43.1255 169.021 50.2164 166.536 51.9182C163.625 53.8327 160.43 58.5127 160.43 60.7818C160.43 64.1145 161.992 64.7527 166.536 63.3345Z" fill="#607F90"/>
<path d="M46.1201 13.6273C44.7001 14.9036 43.5641 13.9818 44.2741 12.2091C44.8421 10.6491 49.2441 10.8618 52.5101 12.5636C59.2551 16.0382 58.9001 23.98 51.6581 31.0709C48.6761 33.9782 43.9901 36.6018 41.7891 36.6727C39.8721 36.6727 36.8901 33.8364 36.8901 31.9927C36.8901 31.0709 36.7481 30.2909 36.5351 30.2909C36.3221 30.2909 34.8311 31.6382 33.1981 33.1982C29.7191 36.6018 25.1751 39.7927 22.9031 40.5018C20.2761 41.3527 18.2171 38.5873 18.5721 34.9C18.9271 31.8509 21.8381 26.2491 25.3171 21.9236L27.1631 19.5836L21.5541 22.1364C18.5011 23.5545 14.5961 25.4691 12.9631 26.3909C9.12906 28.66 2.10006 35.1127 2.10006 36.3891C2.10006 37.5945 0.964058 37.7364 0.254058 36.6018C-0.313942 35.68 6.14706 28.9436 10.3361 26.0364C11.8981 24.9018 16.6551 22.5618 20.9861 20.7182C25.2461 18.9455 29.4351 16.96 30.2871 16.3927C33.8371 14.1236 34.4761 16.18 31.1391 19.3709C26.6661 23.6964 19.4951 36.5309 20.8441 37.8782C21.6961 38.7291 27.2341 35.4673 32.4171 31C35.2571 28.5891 37.8841 26.8164 38.3101 27.1C38.7361 27.3836 38.8781 28.66 38.5941 30.22C37.7421 35.3255 41.5051 35.8218 47.6111 31.3545C54.2851 26.4618 57.1961 19.2291 53.9301 15.7545C53.0071 14.8327 51.2321 13.6982 49.8831 13.2018C47.8241 12.5636 47.2561 12.6345 46.1201 13.6273Z" fill="#607F90"/>
</svg>
