<svg width="196" height="42" viewBox="0 0 196 42" fill="none" xmlns="http://www.w3.org/2000/svg">
<path fill-rule="evenodd" clip-rule="evenodd" d="M188.949 1.40683C187.429 2.16827 184.18 4.93713 181.691 7.49834L177.198 12.2054L170.977 11.1671C159.157 9.22888 141.807 11.1671 138.834 14.7666C137.383 16.5664 138.35 16.4972 142.844 14.6974C149.963 11.8593 157.843 11.2363 167.659 12.69L175.954 14.0052L173.258 18.1585C171.806 20.4428 170.424 23.004 170.217 23.9039C169.733 25.8421 169.387 25.8421 167.728 24.3192C166.484 23.2117 166.207 23.2117 163.166 24.8038C161.369 25.7729 157.36 28.1264 154.249 30.1338C148.719 33.5949 146.922 34.0795 149.963 31.3106C152.175 29.3032 152.797 27.7803 151.968 26.1882C151 24.3884 149.894 24.4576 146.714 26.3266L144.226 27.7803L145.125 26.3266C145.885 25.1499 145.885 24.6653 145.194 23.9731C144.502 23.2809 143.742 23.6962 141.392 25.9805C135.516 31.6567 126.392 36.2253 126.392 33.5257C126.392 32.9027 126.945 32.2105 127.636 32.0028C131.231 30.8953 134.479 28.8878 135.309 27.2957C136.208 25.7036 136.208 25.2883 135.24 24.3884C133.304 22.4502 130.263 23.7654 126.046 28.4725C122.249 32.6903 122.176 32.695 117.904 32.971L117.89 32.9719C114.364 33.1104 113.189 32.9027 111.185 31.5875L108.765 30.0646L112.982 29.6493C117.544 29.1647 121.346 27.2957 121.968 25.2883C122.521 23.5578 121.069 22.0349 120.447 23.6962C119.894 25.1499 115.816 27.2957 112.291 27.9187L109.664 28.4725L112.636 23.6962C115.954 18.2969 121.208 11.444 123.904 8.95199C125.77 7.22145 126.254 5.42169 124.94 5.42169C123.281 5.42169 119.825 8.67511 115.263 14.5589C110.632 20.6505 109.249 21.8272 96.5304 30.826C92.5212 33.7333 89.065 34.7024 89.065 32.9027C89.065 31.5183 90.2401 30.1338 91.0005 30.6184C92.1756 31.3106 96.4613 29.2339 97.6364 27.365C98.8115 25.6344 98.535 23.7654 97.0834 23.2117C95.5626 22.5887 90.7931 25.2191 88.6502 27.7803C87.5443 29.0955 84.4337 31.3106 81.7378 32.695C76.4844 35.3254 73.1664 35.8792 73.1664 34.1487C73.1664 33.5949 73.5812 33.1104 74.0651 33.1104C75.6549 33.1104 80.5627 29.5108 81.7378 27.4342C83.1894 25.0806 82.2908 23.4193 79.595 23.4193C77.5904 23.4193 71.3001 29.0955 70.9545 31.2414C70.678 32.9719 67.0835 34.1487 63.6273 33.5257C62.0375 33.318 61.4153 33.4565 61.6227 34.0102C61.761 34.564 63.4891 34.8409 66.3232 34.8409C70.0559 34.8409 71.0236 35.1178 72.337 36.433C74.3416 38.4404 76.5535 38.0943 82.2217 35.0486L86.0235 32.9027L87.8899 34.7717C90.6548 37.5405 93.1433 36.433 103.097 28.4725C106.07 26.0497 108.558 24.1115 108.765 24.1115C108.904 24.1115 107.59 26.8804 105.862 30.203C102.406 36.8483 101.576 41.4862 103.719 41.9707C104.549 42.1092 104.825 41.7631 104.756 40.794C104.687 39.7556 106.83 34.2179 108.143 31.8644C108.212 31.7259 109.457 32.4181 110.839 33.4565C112.913 34.7717 114.295 35.187 117.337 35.187C119.48 35.187 121.692 34.9101 122.175 34.564C122.936 34.0795 123.696 34.4256 124.802 35.6716C126.807 37.7482 128.811 37.4713 133.166 34.4948C134.756 33.318 136.208 32.4181 136.346 32.4181C136.484 32.4181 136.415 33.1796 136.277 34.0795C136.069 35.1178 136.346 35.81 137.037 36.0869C137.659 36.3638 138.143 36.2253 138.143 35.8792C138.143 34.2179 147.198 26.8804 149.272 26.8804C149.687 26.8804 148.926 28.1264 147.544 29.6493C144.779 32.7642 144.572 33.5257 146.161 35.2562C147.544 36.7791 148.443 36.433 153.903 32.6258C157.982 29.7185 158.189 29.6493 157.843 31.2414C156.737 35.6716 161.092 37.4021 165.032 34.0795C166.207 33.1104 167.175 32.6258 167.175 32.9719C167.175 34.2179 169.318 35.8792 170.908 35.8792C171.737 35.8792 175.816 33.5257 179.894 30.6876C184.041 27.8495 187.982 25.3575 188.742 25.1499C190.193 24.6653 190.47 22.7271 189.088 22.7271C188.535 22.7271 185.078 24.8038 181.276 27.2957C173.465 32.4874 170.631 34.0795 170.148 33.5257C169.595 32.9719 173.673 23.9731 176.645 19.0584C179.341 14.6282 180.516 13.7283 183.972 13.7283C185.217 13.7283 187.982 12.8976 190.055 11.7901C195.793 8.88277 197.659 4.24492 194.41 0.991501C193.028 -0.392933 192.336 -0.392929 188.949 1.40683ZM194.134 4.31414C194.134 7.29067 187.429 11.6516 182.866 11.6516C181.622 11.6516 181.76 11.2363 184.111 8.81355C187.359 5.49091 192.682 1.82216 193.511 2.37593C193.857 2.5836 194.134 3.41426 194.134 4.31414ZM73.9959 31.3798C74.4798 31.8644 80.2171 27.5034 80.6318 26.3266C80.7701 25.9113 80.4245 25.496 79.9406 25.496C78.8346 25.496 73.4429 30.826 73.9959 31.3798ZM95.0788 27.2265C93.0742 29.0263 91.8299 29.4416 91.8299 28.3341C91.8299 27.5034 94.7332 25.5652 95.9774 25.5652C96.6686 25.5652 96.323 26.119 95.0788 27.2265ZM128.535 29.9262C129.088 30.4799 133.443 27.5034 133.857 26.3266C133.996 25.9113 133.788 25.496 133.374 25.496C132.337 25.496 128.051 29.4416 128.535 29.9262ZM168.143 26.8112C168.834 27.9187 167.936 29.2339 164.825 31.5183C159.572 35.5331 158.327 33.5949 163.097 28.9571C165.931 26.1882 167.383 25.5652 168.143 26.8112ZM48.7656 10.4056C47.0375 11.3055 45.3094 9.85186 46.8993 8.81354C48.4891 7.77522 54.2264 8.60587 57.4753 10.4056C59.2034 11.3747 60.9315 13.0361 61.6227 14.4205C65.7702 22.4502 56.784 38.6481 48.2126 38.6481C47.4523 38.6481 46.0698 37.8866 45.1021 36.8483C43.6505 35.4639 43.374 34.564 43.5813 32.2105L43.7887 29.2339L39.2956 33.8026C32.4524 40.7247 28.3049 42.2476 24.987 38.925C23.4662 37.4021 23.2589 36.7791 23.6736 34.0794C24.0883 30.7568 26.0238 26.3958 28.7197 22.8655C30.6551 20.3043 30.3095 20.0967 27.268 21.9657C26.0929 22.7271 22.0146 24.1115 18.2128 25.1499C9.08841 27.5034 2.79812 30.5491 2.24513 32.8335C1.83039 34.564 0.58615 34.7717 0.0331603 33.1796C-0.450711 31.7951 4.4571 27.7803 8.4663 26.2574C10.54 25.496 14.8257 24.1807 17.9363 23.4193C24.2266 21.758 29.9639 19.1276 34.0422 15.8741C36.1851 14.1436 36.9454 13.8667 37.7058 14.5589C38.5353 15.1819 38.2588 15.7357 36.2542 17.8124C32.6597 21.5503 28.3049 28.7494 27.1298 32.9719C26.1621 36.2945 26.1621 36.8483 27.0607 37.7482C28.6505 39.3403 33.2127 36.6406 39.7795 29.9954C42.9592 26.8804 45.655 24.4576 45.8624 24.6653C46.0007 24.873 46.0007 27.2265 45.7242 29.9261C45.4477 34.0102 45.5168 35.0485 46.4845 35.81C50.5629 39.2018 59.549 28.8186 60.5167 19.6813C60.8623 16.5664 60.655 15.8049 59.2725 14.1436C57.1296 11.7208 50.632 9.36731 48.7656 10.4056Z" fill="#607F90"/>
</svg>
