<svg viewBox="0 0 200 200" xmlns="http://www.w3.org/2000/svg">
    <path fill="#B4D4FF"
        d="M40.8,-57.1C55.3,-54.1,71.2,-46.9,80,-34.5C88.9,-22.1,90.6,-4.4,82.5,7.8C74.5,20,56.6,26.8,44.9,37.3C33.3,47.9,27.9,62.2,18.1,67.9C8.3,73.7,-5.8,70.8,-16.9,64.4C-28.1,58.1,-36.2,48.3,-43.8,38.5C-51.3,28.8,-58.3,19.1,-59.1,8.9C-59.9,-1.2,-54.6,-11.9,-50.3,-23.7C-46.1,-35.6,-42.9,-48.7,-34.7,-54.5C-26.5,-60.4,-13.2,-59,-0.1,-58.9C13.1,-58.8,26.3,-60.1,40.8,-57.1Z"
        transform="translate(100 100)" />
</svg>