<svg xmlns="http://www.w3.org/2000/svg" width="338" height="52" viewBox="0 0 338 52" version="1.1"><path d="M 26.776 0.733 C 29.128 0.945, 32.728 0.942, 34.776 0.727 C 36.824 0.512, 34.900 0.339, 30.500 0.343 C 26.100 0.346, 24.424 0.522, 26.776 0.733 M 66.250 0.689 C 67.213 0.941, 68.787 0.941, 69.750 0.689 C 70.713 0.438, 69.925 0.232, 68 0.232 C 66.075 0.232, 65.287 0.438, 66.250 0.689 M 90.269 0.693 C 91.242 0.947, 92.592 0.930, 93.269 0.656 C 93.946 0.382, 93.150 0.175, 91.500 0.195 C 89.850 0.215, 89.296 0.439, 90.269 0.693 M 96.750 0.662 C 97.438 0.940, 98.563 0.940, 99.250 0.662 C 99.938 0.385, 99.375 0.158, 98 0.158 C 96.625 0.158, 96.063 0.385, 96.750 0.662 M 122.275 0.608 C 123.007 1.340, 135.071 1.262, 135.812 0.521 C 136.099 0.234, 133.033 0, 129 0 C 124.967 0, 121.940 0.274, 122.275 0.608 M 157.750 0.723 C 159.537 0.945, 162.463 0.945, 164.250 0.723 C 166.037 0.502, 164.575 0.320, 161 0.320 C 157.425 0.320, 155.963 0.502, 157.750 0.723 M 213.250 0.689 C 214.213 0.941, 215.787 0.941, 216.750 0.689 C 217.713 0.438, 216.925 0.232, 215 0.232 C 213.075 0.232, 212.287 0.438, 213.250 0.689 M 265.750 0.662 C 266.438 0.940, 267.563 0.940, 268.250 0.662 C 268.938 0.385, 268.375 0.158, 267 0.158 C 265.625 0.158, 265.063 0.385, 265.750 0.662 M 293.750 0.662 C 294.438 0.940, 295.563 0.940, 296.250 0.662 C 296.938 0.385, 296.375 0.158, 295 0.158 C 293.625 0.158, 293.063 0.385, 293.750 0.662 M 301 17.331 C 301 18.612, 302.123 21.875, 303.496 24.581 C 305.276 28.089, 305.993 31.114, 305.996 35.128 C 305.999 38.886, 306.494 41.165, 307.488 41.990 C 309.496 43.656, 310.073 41.997, 310.315 33.865 C 310.501 27.608, 310.590 27.420, 315.502 22.802 C 320.255 18.334, 320.415 18.018, 318.762 16.349 C 317.106 14.678, 316.790 14.836, 312.149 19.652 L 307.274 24.709 305.223 19.855 C 303.043 14.694, 301 13.473, 301 17.331 M 19.215 17.750 C 19.416 18.724, 20.383 19.431, 21.395 19.343 C 22.927 19.211, 23.107 19.683, 22.539 22.343 C 22.169 24.080, 21.486 29.325, 21.023 34 C 20.370 40.579, 20.477 42.809, 21.494 43.868 C 23.419 45.873, 25 44.364, 25 40.523 C 25 35.716, 25.901 34, 28.425 34 C 32.844 34, 41 30.971, 41 29.330 C 41 28.010, 40.271 27.859, 36.750 28.453 C 34.413 28.847, 31.103 29.398, 29.394 29.677 L 26.289 30.185 26.987 25.583 C 27.372 23.052, 27.970 20.696, 28.318 20.348 C 28.666 20, 30.868 19.667, 33.210 19.608 C 36.418 19.527, 37.554 19.068, 37.808 17.750 C 38.112 16.181, 37.150 16, 28.500 16 C 19.842 16, 18.890 16.179, 19.215 17.750 M 134.694 17.639 C 133.626 18.707, 134.993 20, 137.190 20 C 139.027 20, 139.192 20.424, 138.642 23.750 C 138.301 25.813, 138.017 29.580, 138.011 32.122 C 138 36.744, 138 36.744, 133.973 37.388 C 130.336 37.970, 130.049 38.224, 131.009 40.016 C 131.721 41.347, 133.102 42, 135.203 42 C 139.900 42, 151 39.906, 151 39.020 C 151 37.194, 147.830 35.784, 144.998 36.350 C 141.582 37.034, 141.511 36.658, 142.935 25.500 C 143.356 22.200, 143.495 18.938, 143.243 18.250 C 142.776 16.972, 135.856 16.478, 134.694 17.639 M 195.296 18.250 C 193.912 20.074, 192 29.475, 192 34.454 C 192 40.927, 193.774 41.792, 200.048 38.377 C 206.333 34.956, 209 31.732, 209 27.552 C 209 23.803, 205.280 19.867, 200.101 18.136 C 195.974 16.757, 196.438 16.746, 195.296 18.250 M 81.240 19.760 C 79.989 21.011, 78.949 24.505, 78.071 30.407 C 76.911 38.208, 76.941 39.369, 78.341 40.770 C 79.777 42.205, 80.005 42.118, 80.890 39.789 L 81.863 37.231 87.681 38.600 C 94.678 40.246, 98.656 40.366, 99.527 38.956 C 100.709 37.044, 98.021 35.260, 92.943 34.587 L 87.920 33.921 89.960 31.056 C 92.621 27.320, 92.546 23.848, 89.750 21.289 C 86.288 18.120, 83.399 17.601, 81.240 19.760 M 253.960 22.185 C 250.212 27.322, 245 37.345, 245 39.412 C 245 42.349, 247.329 42.275, 249.901 39.255 C 253.137 35.458, 260 33.758, 260 36.755 C 260 38.708, 261.787 41, 263.309 41 C 263.810 41, 264.036 39.438, 263.814 37.529 C 263.553 35.293, 263.870 33.880, 264.704 33.560 C 266.628 32.822, 266.273 30.305, 264.166 29.754 C 262.952 29.436, 261.832 27.474, 260.851 23.949 C 260.036 21.020, 258.860 18.453, 258.238 18.246 C 257.616 18.039, 255.691 19.811, 253.960 22.185 M 83.986 23.750 C 83.979 24.712, 83.697 26.625, 83.360 28 L 82.747 30.500 85.514 27.837 C 87.237 26.178, 88.051 24.575, 87.672 23.587 C 86.848 21.440, 84.003 21.566, 83.986 23.750 M 198.687 23.372 C 197.449 26.600, 196.819 34, 197.783 34 C 198.924 34, 205 27.366, 205 26.120 C 205 24.993, 201.570 22, 200.278 22 C 199.693 22, 198.977 22.617, 198.687 23.372 M 255.615 29.128 C 254.077 31.313, 254.074 31.527, 255.579 31.844 C 257.973 32.348, 259.403 30.542, 258.246 28.475 C 257.373 26.914, 257.131 26.974, 255.615 29.128" stroke="none" fill="#e8e7ee" fill-rule="evenodd"/></svg>