<svg xmlns="http://www.w3.org/2000/svg" width="1320" height="210" viewBox="0 0 1320 210" version="1.1"><path d="M 225 48.043 C 174.638 50.798, 144.135 82.306, 166.818 108.140 L 169.900 111.650 165.652 113.714 C 163.316 114.849, 158.951 118.011, 155.952 120.742 C 151.317 124.962, 148.252 126.570, 135.500 131.473 C 81.694 152.159, 56.075 158.143, 27.750 156.640 C 15.371 155.984, 12.014 157.326, 18.750 160.238 C 34.742 167.152, 78.162 159.244, 124.322 141.012 C 138.497 135.413, 143.939 133.655, 143.425 134.841 C 134.506 155.429, 159.067 176.464, 192 176.442 C 222.376 176.421, 259.652 163.246, 281.027 144.974 L 286.555 140.250 326.027 139.605 C 347.737 139.251, 368.762 138.692, 372.750 138.363 C 381.024 137.681, 380.887 137.488, 377.320 144.778 C 366.779 166.323, 391.366 180.943, 422.418 171.596 C 434.205 168.048, 480.767 149.604, 518.500 133.538 C 561.239 115.339, 564.472 114.307, 554.410 122.069 C 539.462 133.602, 523.577 153.509, 522.385 162.205 C 519.114 186.074, 538.693 189.442, 586 173.148 C 600.177 168.265, 639.524 154.303, 650.923 150.111 C 660.379 146.634, 660.468 146.638, 658.987 150.535 C 656.141 158.019, 662.535 168.674, 671.743 171.793 C 682.577 175.462, 705.345 164.432, 710.490 153.022 L 712.304 149 721.928 149 C 742.392 149, 778.679 142.006, 806.979 132.608 C 816.110 129.575, 815.852 129.251, 810.567 137.129 C 798.302 155.412, 791.411 171.795, 793.445 177.836 C 795.923 185.198, 805.318 185.789, 804.830 178.553 C 803.571 159.847, 857.488 126.788, 868.036 139.799 C 872.353 145.124, 866.928 150.998, 857.682 151.008 C 833.126 151.033, 819.506 160.474, 828.157 171.473 C 836.041 181.495, 859.472 176.207, 871.654 161.657 L 874.500 158.258 892.500 157.711 C 909.553 157.193, 935.710 154.665, 957.243 151.453 C 971.632 149.307, 972 149.353, 972 153.288 C 972 168.855, 988.282 175.066, 1010.463 167.961 C 1035.898 159.813, 1098.622 128.576, 1134.371 106.252 L 1146.241 98.840 1156.871 99.974 C 1170.789 101.460, 1180.537 103.079, 1182.179 104.178 C 1183.781 105.251, 1179.026 109.706, 1165 120.275 C 1129.336 147.147, 1118.798 162.487, 1127.311 175.138 C 1133.357 184.124, 1143.329 182.240, 1186.500 163.955 C 1207.533 155.047, 1229.337 146.879, 1242.500 142.978 C 1274.426 133.516, 1281.986 131.136, 1286.485 129.129 C 1293.134 126.162, 1299.493 124.701, 1298.017 126.480 C 1297.194 127.471, 1297.659 127.870, 1300.042 128.220 C 1302.971 128.649, 1303.768 125.427, 1301.333 123.002 C 1297.963 119.645, 1233.488 136.394, 1211.037 146.459 C 1206.892 148.318, 1201.925 150.083, 1200 150.382 C 1198.075 150.681, 1191.100 152.904, 1184.500 155.323 C 1152.830 166.929, 1135.994 171.811, 1136.004 169.386 C 1136.023 164.880, 1151.190 149.305, 1169.667 134.817 C 1203.662 108.164, 1203.289 93.632, 1168.521 90.191 L 1161.542 89.500 1167.021 85.582 C 1179.033 76.991, 1181.844 72.986, 1178.328 69.471 C 1175.006 66.148, 1163.391 70.349, 1150.371 79.582 C 1143.803 84.240, 1143 85.411, 1143 90.334 C 1143 93.092, 1142.388 93.827, 1138.283 96.002 C 1135.688 97.376, 1129.500 100.915, 1124.533 103.868 C 1119.565 106.820, 1106.950 113.481, 1096.500 118.671 C 1086.050 123.860, 1075.475 129.166, 1073 130.461 C 1041.215 147.094, 984.601 163.195, 983.233 155.992 C 982.416 151.691, 987.976 146.449, 995.346 144.569 C 1022.199 137.722, 1033.398 124.886, 1016.898 119.868 C 1008.110 117.195, 984.862 129.369, 976.548 140.997 C 973.791 144.853, 936.991 149.401, 898.397 150.655 L 878.295 151.308 877.781 146.750 C 875.773 128.937, 859.612 125.156, 835.714 136.906 C 830.331 139.553, 826.056 141.412, 826.214 141.037 C 826.371 140.663, 829.629 136.008, 833.454 130.693 L 840.408 121.030 854.454 116.395 C 869.872 111.308, 887.714 102.917, 895.500 97.090 C 898.250 95.033, 903.200 91.636, 906.500 89.543 C 943.361 66.162, 947.644 43.267, 913.526 51.993 C 884.503 59.416, 850.350 84.445, 825.500 116.503 C 823.850 118.631, 821.825 121.176, 821 122.157 C 819.615 123.804, 813.600 125.692, 787.572 132.649 C 765.152 138.641, 744.001 142.187, 727.392 142.738 L 711.285 143.272 710.665 140.802 C 710.324 139.443, 708.703 136.643, 707.062 134.578 C 705.421 132.514, 703.815 129.992, 703.492 128.974 C 701.726 123.411, 690.327 124.950, 676.006 132.686 C 658.118 142.349, 568.648 170.737, 549.455 172.839 C 525.364 175.479, 525.546 168.482, 550.194 144.499 C 565.646 129.463, 567.583 127.945, 591 112.513 L 600.500 106.252 619 105.564 C 629.175 105.186, 651.586 104.691, 668.803 104.464 C 702.562 104.020, 702 104.089, 702 100.371 L 702 97.861 658.499 98.180 C 634.574 98.356, 614.999 98.197, 614.999 97.827 C 615 97.456, 618.379 95.012, 622.510 92.396 C 630.558 87.298, 631.256 85.607, 626.881 81.814 C 624.385 79.650, 622.737 80.238, 604.978 89.624 C 587.393 98.918, 588.131 98.748, 562 99.532 C 549.625 99.903, 531.400 100.554, 521.500 100.977 C 511.600 101.401, 493.601 101.819, 481.502 101.907 C 463.710 102.036, 459.226 102.346, 458.045 103.526 C 454.404 107.167, 457.225 107.376, 510.902 107.439 C 539.461 107.473, 562.683 107.645, 562.507 107.823 C 561.186 109.158, 491.661 136.461, 468 144.936 C 406.932 166.809, 381.397 169.575, 389.300 153.461 C 395.737 140.335, 417.017 129.352, 425.873 134.584 C 431.506 137.911, 432.326 132.803, 427.053 127.245 C 420.118 119.937, 406.871 120.832, 392.049 129.612 L 386.500 132.898 340.326 133.358 C 288.616 133.873, 292.037 134.260, 296.095 128.362 C 316.358 98.911, 288.072 53.150, 246.712 48.469 C 243.845 48.145, 240.600 47.762, 239.500 47.619 C 238.400 47.476, 231.875 47.667, 225 48.043 M 214.740 57.583 C 130.104 72.885, 161.327 129.696, 256.014 132.681 L 275.529 133.296 280.928 127.398 C 315.271 89.883, 274.419 46.792, 214.740 57.583 M 923.500 57.501 C 900.342 63.844, 875.701 80.818, 852.844 106.174 C 844.541 115.384, 844.551 115.559, 853.257 113.070 C 875.560 106.691, 915.155 81.584, 928.058 65.637 C 935.629 56.280, 934.609 54.458, 923.500 57.501 M 170.427 120.489 C 113.070 158.291, 186.874 182.362, 253.599 147.615 C 269.254 139.463, 269.411 139.048, 256.856 139.022 C 226.650 138.959, 203.455 133.370, 183.320 121.303 C 179.371 118.936, 175.996 117.033, 175.820 117.073 C 175.644 117.113, 173.217 118.650, 170.427 120.489 M 684.388 141.703 C 676.196 147.131, 668.273 156.664, 669.437 159.695 C 671.034 163.859, 693.515 157.191, 699.824 150.682 L 703.002 147.403 699.251 146.096 C 697.188 145.377, 693.875 143.515, 691.888 141.958 L 688.276 139.128 684.388 141.703" stroke="none" fill="#967b5d" fill-rule="evenodd"/></svg>