<svg xmlns="http://www.w3.org/2000/svg" width="452" height="46" viewBox="0 0 452 46" version="1.1"><path d="M 415.703 13.250 C 415.987 14.488, 416.845 17.719, 417.609 20.432 C 418.374 23.144, 419 28.431, 419 32.182 C 419 37.399, 419.333 39, 420.417 39 C 421.830 39, 424 31.465, 424 26.559 C 424 25.046, 426.001 22.217, 429.654 18.563 C 433.593 14.624, 434.991 12.591, 434.262 11.862 C 432.799 10.399, 430.151 11.984, 425.551 17.075 C 421.700 21.337, 420.054 21.221, 420.015 16.684 C 419.993 14.041, 418.143 11, 416.558 11 C 415.650 11, 415.361 11.760, 415.703 13.250 M 305 13.500 C 305 14.325, 304.550 15, 304 15 C 303.450 15, 303 16.553, 303 18.451 C 303 20.349, 302.465 24.286, 301.810 27.201 C 299.508 37.456, 301.894 38.871, 312.861 33.751 C 320.036 30.400, 321.637 22.910, 316.315 17.588 C 314.962 16.234, 312.537 14.838, 310.927 14.484 C 309.317 14.130, 308 13.427, 308 12.921 C 308 12.414, 307.325 12, 306.500 12 C 305.675 12, 305 12.675, 305 13.500 M 361.427 17.886 C 358.858 21.194, 356.024 24.041, 355.128 24.214 C 354.116 24.409, 353.426 25.657, 353.304 27.514 C 353.197 29.156, 352.972 31.579, 352.804 32.899 C 352.303 36.848, 354.656 36.384, 357.091 32.052 C 358.885 28.859, 359.948 28, 362.102 28 C 363.606 28, 365.566 27.720, 366.459 27.377 C 367.633 26.927, 368.407 27.617, 369.260 29.877 C 370.832 34.042, 373.478 34.138, 372.650 30 C 372.139 27.444, 372.355 27, 374.108 27 C 376.669 27, 376.139 24.848, 373.258 23.544 C 371.357 22.684, 369.870 18.826, 369.587 14.016 C 369.376 10.431, 365.957 12.053, 361.427 17.886 M 33 14.021 C 29.975 14.451, 24.881 14.847, 21.680 14.901 C 16.241 14.994, 15.882 15.147, 16.180 17.250 C 16.481 19.366, 16.908 19.483, 23.366 19.219 C 30.072 18.944, 30.219 18.991, 29.661 21.219 C 26.224 34.949, 25.982 38.395, 28.389 39.319 C 29.293 39.666, 30.337 36.781, 31.969 29.428 C 33.599 22.083, 34.745 18.917, 35.886 18.599 C 36.774 18.352, 38.988 17.849, 40.806 17.483 C 43.155 17.009, 44.020 16.337, 43.797 15.158 C 43.429 13.213, 40.710 12.927, 33 14.021 M 194.875 14.205 C 192.878 15.797, 189.700 27.468, 190.162 31.518 C 190.608 35.427, 194 36.360, 194 32.573 C 194 29.423, 194.075 29.422, 201.500 32.481 C 208.837 35.503, 210 35.569, 210 32.959 C 210 31.521, 208.795 30.406, 205.921 29.186 L 201.842 27.453 203.921 25.572 C 205.064 24.537, 206 22.488, 206 21.019 C 206 16.117, 198.354 11.434, 194.875 14.205 M 249.873 14.654 C 247.943 16.979, 248.662 19.756, 252.628 25.295 C 254.517 27.933, 255.796 30.520, 255.472 31.045 C 254.443 32.711, 249.394 32.076, 246.975 29.978 C 243.812 27.235, 242.091 28.963, 244.429 32.532 C 248.804 39.209, 260.008 38.918, 259.995 32.128 C 259.990 29.544, 258.724 27.135, 254.234 21.160 C 251.995 18.183, 251.992 18.137, 253.984 17.505 C 255.093 17.153, 256.900 17.151, 258 17.500 C 260.272 18.221, 260.769 16.169, 258.800 14.200 C 257.050 12.450, 251.466 12.733, 249.873 14.654 M 76.865 20.250 C 75.288 25.781, 75.151 35.188, 76.640 35.701 C 77.276 35.920, 78.173 34.417, 78.672 32.297 C 79.511 28.728, 79.814 28.482, 83.719 28.196 C 87.855 27.893, 87.874 27.907, 88.186 31.618 C 88.642 37.037, 90.716 37.013, 92.086 31.572 C 92.719 29.058, 93.594 27, 94.030 27 C 94.466 27, 94.750 25.094, 94.661 22.763 C 94.463 17.566, 91.786 16.312, 90.252 20.699 C 89.413 23.099, 88.665 23.540, 85.020 23.783 C 80.954 24.053, 80.794 23.957, 81.382 21.612 C 82.972 15.281, 78.653 13.979, 76.865 20.250 M 148.068 20.222 C 146.556 25.333, 144.391 28, 141.755 28 C 140.066 28, 139.863 27.398, 140.160 23.269 C 140.429 19.528, 140.161 18.471, 138.879 18.221 C 135.470 17.553, 134.991 26.779, 138.250 30.363 C 141.454 33.887, 144.211 34.408, 147.202 32.056 C 151.197 28.913, 153.560 17.334, 150.417 16.301 C 149.821 16.105, 148.764 17.869, 148.068 20.222 M 196.495 20.017 C 195.575 22.913, 196.496 23.551, 199.574 22.148 C 202.523 20.805, 202.350 18.649, 199.258 18.192 C 197.846 17.983, 196.953 18.573, 196.495 20.017 M 307.527 20.250 C 304.888 31.870, 304.937 32.130, 309.316 29.875 C 312.561 28.204, 316 24.834, 316 23.326 C 316 21.326, 312.265 18, 310.019 18 C 308.783 18, 307.846 18.846, 307.527 20.250 M 364.723 21 C 363.126 23.246, 363.108 23.534, 364.551 23.838 C 366.709 24.293, 367.224 23.614, 366.831 20.836 L 366.500 18.500 364.723 21" stroke="none" fill="#e7e7ed" fill-rule="evenodd"/></svg>