<svg xmlns="http://www.w3.org/2000/svg" width="406" height="52" viewBox="0 0 406 52" version="1.1"><path d="M 363.022 17.750 C 363.034 18.712, 363.968 21.525, 365.098 24 C 366.560 27.201, 366.981 29.592, 366.559 32.284 C 365.963 36.086, 367.393 40.493, 368.918 39.550 C 369.368 39.272, 370.049 36.672, 370.431 33.772 C 370.971 29.670, 371.999 27.462, 375.063 23.821 C 377.228 21.247, 379 18.434, 379 17.571 C 379 14.569, 376.480 16.033, 373.093 21.002 C 371.220 23.751, 369.540 26, 369.360 26 C 369.181 26, 367.894 23.750, 366.500 21 C 363.809 15.689, 362.986 14.921, 363.022 17.750 M 139.647 17.762 C 139.364 18.220, 139.491 19.177, 139.930 19.887 C 140.369 20.598, 140.069 23.428, 139.264 26.176 C 137.645 31.697, 138.282 39.787, 140.399 40.600 C 141.992 41.211, 156.331 35.506, 156.810 34.070 C 157.530 31.909, 153.760 31.806, 148.248 33.836 C 145.135 34.983, 142.419 35.753, 142.213 35.546 C 141.262 34.595, 144.284 31, 146.035 31 C 147.116 31, 148 30.325, 148 29.500 C 148 28.675, 147.352 28, 146.559 28 C 144.414 28, 143.867 26.481, 144.968 23.584 C 145.726 21.591, 146.643 21, 148.975 21 C 152.314 21, 152.971 19.555, 150.250 18.197 C 147.908 17.027, 140.294 16.715, 139.647 17.762 M 204.500 17.782 C 199.336 18.900, 198.553 23.236, 202.565 28.497 L 205.130 31.860 203.022 32.988 C 201.863 33.609, 199.515 33.978, 197.806 33.808 C 194.209 33.451, 193.370 34.756, 195.406 37.540 C 197.601 40.542, 205.536 40.291, 208.088 37.139 C 210.625 34.006, 210.521 33.077, 207.052 27.911 C 204.569 24.214, 204.341 23.389, 205.604 22.682 C 206.506 22.177, 207.677 22.317, 208.541 23.034 C 209.676 23.976, 210.102 23.898, 210.577 22.661 C 211.686 19.771, 208.209 16.980, 204.500 17.782 M 310.623 22.592 C 304.230 29.779, 301.733 34.632, 303.108 37.201 C 303.930 38.738, 304.430 38.888, 305.570 37.942 C 306.356 37.289, 307 36.135, 307 35.378 C 307 34.462, 308.342 33.950, 311 33.850 C 313.200 33.768, 315.562 33.655, 316.249 33.600 C 316.935 33.545, 317.542 34.175, 317.596 35 C 317.825 38.468, 318.070 39, 319.440 39 C 321.427 39, 321.857 32.413, 320.154 28.052 C 319.353 26, 319.054 23.065, 319.416 20.802 C 319.971 17.331, 319.827 17.005, 317.762 17.055 C 316.322 17.090, 313.728 19.102, 310.623 22.592 M 21.500 19 C 20.223 21.066, 22.303 22, 28.176 22 C 33.985 22, 34.206 22.092, 33.577 24.250 C 30.805 33.760, 30.435 42, 32.781 42 C 33.189 42, 34.533 37.881, 35.767 32.846 C 38.346 22.324, 39.169 21, 43.122 21 C 45.014 21, 46 20.486, 46 19.500 C 46 18.250, 44.007 18, 34.059 18 C 27.177 18, 21.856 18.424, 21.500 19 M 250.306 21.206 C 248.543 23.459, 246.542 37.942, 247.818 39.218 C 250.375 41.775, 261.208 36.214, 263.036 31.406 C 264.215 28.304, 262.505 23.583, 259.702 22.202 C 255.813 20.285, 251.393 19.816, 250.306 21.206 M 88.088 27.500 C 85.602 33.499, 83 34.840, 83 30.122 C 83 26.639, 80.569 24.076, 79.617 26.556 C 78.517 29.423, 78.966 32.432, 80.989 35.750 C 83.320 39.573, 86.058 39.927, 88.986 36.784 C 91.856 33.704, 94.339 25.113, 92.870 23.344 C 91.078 21.184, 90.496 21.690, 88.088 27.500 M 253.650 25.758 C 253.392 26.174, 252.857 28.247, 252.460 30.363 C 251.792 33.925, 251.879 34.135, 253.630 33.198 C 256.754 31.526, 259.281 28.175, 258.653 26.537 C 258.047 24.958, 254.487 24.404, 253.650 25.758 M 312.529 27.250 C 311.084 29.303, 311.084 29.529, 312.531 29.835 C 315.284 30.415, 316.877 29.245, 316.306 27.061 C 315.609 24.398, 314.498 24.453, 312.529 27.250" stroke="none" fill="#e8e7ee" fill-rule="evenodd"/></svg>