<svg xmlns="http://www.w3.org/2000/svg" width="532" height="44" viewBox="0 0 532 44" version="1.1"><path d="M 432.406 14.348 C 425.932 21.658, 424.576 23.482, 422.775 27.304 C 421.022 31.023, 421.283 34.018, 423.357 33.978 C 423.986 33.966, 425.175 32.504, 426 30.728 C 427.399 27.718, 427.880 27.480, 433.121 27.204 C 438.075 26.943, 438.806 27.151, 439.278 28.954 C 439.572 30.079, 440.305 31, 440.906 31 C 442.562 31, 442.221 26.594, 440.071 20.210 C 439.010 17.061, 438.222 13.636, 438.321 12.599 C 438.645 9.194, 436.377 9.865, 432.406 14.348 M 88 11.800 C 88 12.240, 88.504 13.104, 89.121 13.721 C 89.926 14.526, 89.959 16.483, 89.236 20.671 C 88.683 23.877, 88.463 28.019, 88.747 29.876 L 89.264 33.253 95.688 32.737 C 99.221 32.453, 102.357 31.976, 102.656 31.677 C 104.080 30.254, 101.404 29, 96.941 29 C 94.223 29, 92.007 28.663, 92.015 28.250 C 92.053 26.390, 93.785 25.131, 97.183 24.493 C 101.610 23.663, 101.389 21, 96.893 21 C 94.363 21, 94 20.634, 94 18.079 C 94 15.647, 94.502 15.049, 97 14.500 C 98.650 14.138, 100 13.202, 100 12.421 C 100 11.351, 98.518 11, 94 11 C 90.700 11, 88 11.360, 88 11.800 M 316.123 13.370 C 313.219 16.460, 314.049 19.958, 318.640 23.989 C 321.371 26.386, 321.686 27, 320.190 27 C 319.156 27, 317.486 26.089, 316.479 24.976 C 314.390 22.669, 312.464 23.736, 313.399 26.683 C 314.732 30.882, 324.831 33.769, 327.800 30.800 C 330.117 28.483, 328.987 25.988, 324 22.405 C 321.250 20.429, 319 18.662, 319 18.478 C 319 18.294, 319.740 17.402, 320.645 16.498 C 321.773 15.370, 322.506 15.201, 322.975 15.960 C 323.709 17.147, 327 16.333, 327 14.964 C 327 14.513, 326.293 13.436, 325.429 12.571 C 323.108 10.251, 318.697 10.629, 316.123 13.370 M 369.880 13.750 C 369.291 15.262, 368.566 19.075, 368.268 22.223 C 367.740 27.806, 367.798 27.973, 370.603 29.039 C 377.194 31.545, 386 26.375, 386 20 C 386 15.006, 381.349 11, 375.552 11 C 371.458 11, 370.832 11.304, 369.880 13.750 M 482.478 12.036 C 482.126 12.606, 483.224 15.233, 484.919 17.873 C 486.893 20.950, 488 23.962, 488 26.256 C 488 30.817, 488.844 33, 490.607 33 C 491.606 33, 492.034 31.514, 492.118 27.750 C 492.184 24.862, 492.166 21.946, 492.079 21.269 C 491.992 20.591, 493.722 18.791, 495.922 17.269 C 498.123 15.746, 499.941 13.938, 499.962 13.250 C 500.031 10.981, 496.128 11.949, 492.553 15.088 L 489.036 18.175 486.919 14.588 C 484.740 10.894, 483.591 10.234, 482.478 12.036 M 254.483 12.851 C 253.449 13.884, 254.070 17, 255.309 17 C 256.304 17, 256.543 18.917, 256.308 25 L 255.998 33 258.595 33 C 263.312 33, 272 29.965, 272 28.318 C 272 26.745, 271.646 26.760, 261.636 28.731 C 258.963 29.258, 258.848 29.152, 259.917 27.154 C 260.629 25.824, 262.775 24.582, 265.580 23.876 C 268.882 23.044, 270.008 22.303, 269.767 21.119 C 269.514 19.877, 268.473 19.572, 265.297 19.809 C 261.579 20.086, 261.210 19.913, 261.680 18.114 C 262.039 16.743, 263.197 16.015, 265.352 15.806 C 267.348 15.612, 268.500 14.951, 268.500 14 C 268.500 12.821, 267.052 12.486, 261.733 12.434 C 258.011 12.398, 254.748 12.585, 254.483 12.851 M 24.578 14.167 C 23.477 17.642, 23.147 22.828, 23.825 26 C 24.927 31.149, 27.588 31.015, 32.963 25.537 C 35.412 23.042, 37.726 21, 38.104 21 C 38.482 21, 40.249 23.271, 42.030 26.047 C 46.597 33.163, 48.282 32.479, 49.305 23.092 C 49.863 17.972, 49.766 15.371, 48.988 14.605 C 47.406 13.048, 45.009 16.529, 44.968 20.441 C 44.937 23.404, 44.887 23.437, 43.370 21.500 C 42.508 20.400, 41.353 18.262, 40.804 16.750 C 39.363 12.785, 37.057 13.414, 32.500 19.016 L 28.500 23.932 28 18.793 C 27.529 13.957, 25.510 11.227, 24.578 14.167 M 199.554 21.145 C 199.017 26.596, 199.164 28.488, 200.175 29.126 C 201.850 30.184, 204 27.475, 204 24.309 C 204 23.039, 204.168 22, 204.374 22 C 205.398 22, 213.966 27.254, 215.026 28.532 C 217.594 31.626, 218.294 30.070, 217.615 22.772 C 216.919 15.283, 216.024 13.249, 213.979 14.513 C 213.195 14.997, 213 16.598, 213.411 19.171 C 213.978 22.712, 213.867 22.995, 212.269 22.102 C 211.296 21.558, 208.731 19.513, 206.568 17.556 C 204.406 15.600, 202.102 14, 201.448 14 C 200.705 14, 199.994 16.685, 199.554 21.145 M 373.686 14.750 C 373.449 15.162, 372.945 17.637, 372.566 20.250 C 371.942 24.552, 372.064 25, 373.862 25 C 376.308 25, 382 20.356, 382 18.360 C 382 17.556, 380.439 16.246, 378.532 15.449 C 374.533 13.778, 374.268 13.740, 373.686 14.750 M 146.598 15.842 C 145.292 17.955, 144.270 28.609, 145.205 30.368 C 146.717 33.215, 153.471 31.991, 157.282 28.180 C 162.975 22.487, 159.625 15, 151.385 15 C 149.038 15, 146.884 15.379, 146.598 15.842 M 433.035 19.934 C 431.557 22.696, 431.702 23, 434.500 23 C 437.071 23, 437.445 22.324, 436.393 19.582 C 435.576 17.454, 434.291 17.589, 433.035 19.934 M 149.662 22.697 C 149.332 24.731, 149.230 26.563, 149.435 26.769 C 149.641 26.974, 151.274 25.834, 153.064 24.234 C 156.575 21.097, 156.378 19, 152.572 19 C 150.683 19, 150.152 19.674, 149.662 22.697" stroke="none" fill="#e8e7ee" fill-rule="evenodd"/></svg>